<?xml version="1.0" encoding="UTF-8"?>
<svg id="Layer_1" xmlns="http://www.w3.org/2000/svg" version="1.1" viewBox="0 0 640 480">
  <!-- Generator: Adobe Illustrator 29.8.1, SVG Export Plug-In . SVG Version: 2.1.1 Build 2)  -->
  <path d="M163.94,275.51c-.28-4.11-.69-8.28-.11-12.38.29-2.04.83-4.09,1.81-5.91,1.15-2.16,2.91-3.45,4.89-4.82,7.75-5.38,16.85-8.38,26.15-9.65,5.25-.72,10.57-.89,15.87-.74,1.93.06,1.93-2.94,0-3-9.98-.29-20.15.63-29.64,3.88-4.71,1.61-9.26,3.78-13.38,6.58-2.02,1.37-4.22,2.8-5.61,4.83-1.28,1.86-2.13,4.03-2.63,6.23-1.13,4.93-.68,10-.34,14.99.13,1.92,3.13,1.93,3,0h0Z"/>
  <path d="M351.25,210.04c18.78-3.22,37.35-9.42,56.59-8.86,4.01.12,7.86.47,11.33,2.65,3.23,2.04,5.22,5.17,6.86,8.53,4.03,8.23,6.68,17.04,9.11,25.85,1.22,4.4,2.38,8.81,3.62,13.2s2.82,8.96,4.35,13.41c3.03,8.82,5.96,17.68,8.56,26.64,2.62,9.02,4.91,18.15,6.69,27.38,1.32,6.82,2.73,14.79-1.19,21.1-.74,1.19-1.71,2.28-2.88,3.06-1.5,1-3.15,1.39-4.85,1.91-4.63,1.43-9.28,2.77-13.96,4.03-9.21,2.47-18.5,4.63-27.84,6.53-18.47,3.77-37.11,6.59-55.76,9.27s-38.34,5.34-57.38,8.85c-9.44,1.74-18.89,3.47-28.38,4.95-4.69.73-9.38,1.4-14.09,1.98-4.7.57-9.38,1.02-14.04,1.82-9.47,1.62-18.99,3.25-28.62,3.5-4.7.13-9.43-.06-14.08-.79-1.16-.18-2.32-.4-3.46-.64s-2.57-.37-3.51-1.03c-1.46-1.03-2.78-2.4-4.01-3.69-10.11-10.68-13.05-25.96-14.86-40.03-.46-3.56-.85-7.13-1.26-10.69-.22-1.9-3.22-1.92-3,0,1.69,14.8,3,30.44,10.35,43.72,1.8,3.24,3.98,6.29,6.52,9,1.28,1.37,2.67,2.65,4.13,3.82.92.73,1.63,1.04,2.77,1.32,1.22.31,2.45.58,3.68.81,9.72,1.82,19.66,1.42,29.42.2,4.9-.61,9.77-1.41,14.64-2.23,2.39-.41,4.8-.91,7.21-1.17s4.95-.51,7.42-.81c9.62-1.16,19.18-2.68,28.72-4.36,9.89-1.74,19.74-3.77,29.67-5.32,9.89-1.55,19.79-2.98,29.7-4.39,19.24-2.74,38.49-5.42,57.6-8.95,9.63-1.78,19.23-3.77,28.75-6.07,4.82-1.17,9.62-2.41,14.39-3.74,2.37-.66,4.74-1.35,7.09-2.05,2.09-.63,4.29-1.13,6.3-1.96,6.49-2.67,8.85-9.7,9.13-16.21.18-4.24-.64-8.36-1.44-12.51-.91-4.73-1.95-9.43-3.11-14.1-2.31-9.35-5.08-18.59-8.06-27.75-2.99-9.18-6.38-18.22-8.97-27.52-2.51-9.01-4.75-18.11-7.92-26.92-1.59-4.41-3.41-8.76-5.59-12.92-1.69-3.23-4.32-6.12-7.49-7.94-3.73-2.15-7.81-2.57-12.04-2.71-4.8-.15-9.6.12-14.37.67-9.78,1.13-19.37,3.36-28.97,5.45-4.75,1.03-9.5,2.02-14.29,2.84-1.9.33-1.09,3.22.8,2.89h0Z"/>
  <path d="M201.46,244.53c20.5-7.94,42.04-12.7,63.58-16.85,6.24-1.2,12.5-2.36,18.75-3.53,1.9-.35,1.09-3.25-.8-2.89-21.76,4.06-43.63,7.96-64.85,14.38-5.9,1.79-11.73,3.77-17.48,6-1.78.69-1.01,3.59.8,2.89h0Z"/>
  <g>
    <path d="M275.48,249.25c-10.9,11.13-20.86,23.18-29.73,36,4.67,2.45,9.34,4.9,14.01,7.35.34.18.71.37,1.1.35.47-.02.87-.34,1.23-.64,7.31-6.14,14.61-12.28,21.92-18.42,2.81,25.43,15.11,48.87,19.84,74.01.13.68.31,1.44.9,1.79.53.31,1.2.16,1.79.02,7.66-1.87,15.58-2.72,23.46-2.53-1.99-3.65-3.98-7.31-5.52-11.18-3.26-8.15-4.44-16.95-5.95-25.6-3.67-21-9.45-41.62-17.23-61.46-.38-.96-.8-1.97-1.64-2.56-1.11-.78-2.61-.62-3.94-.36-7.81,1.49-15.43,4.93-23.36,4.3"/>
    <path d="M274.42,248.19c-10.99,11.23-21.01,23.39-29.96,36.3-.45.65-.14,1.7.54,2.05,3.72,1.95,7.44,3.9,11.17,5.86,1.45.76,3.37,2.28,5.1,1.99s3.26-2.19,4.53-3.25c6.42-5.4,12.85-10.8,19.27-16.2l-2.56-1.06c1.56,13.78,5.76,26.99,10.11,40.09,2.19,6.59,4.4,13.17,6.3,19.84.95,3.33,1.82,6.68,2.58,10.06.35,1.58.58,3.2.98,4.76.37,1.48,1.34,2.69,2.97,2.72.9.02,1.81-.29,2.68-.49,1.02-.23,2.04-.45,3.07-.65,2.08-.4,4.18-.73,6.28-.98,4.16-.48,8.35-.66,12.53-.57,1.17.03,1.82-1.28,1.3-2.26-2.14-3.94-4.31-7.89-5.87-12.11s-2.56-8.38-3.41-12.68c-1.72-8.74-3.01-17.55-4.95-26.26s-4.34-17.63-7.07-26.29c-1.35-4.29-2.8-8.55-4.33-12.78-.78-2.15-1.58-4.3-2.41-6.43-.68-1.76-1.27-3.84-3-4.88-1.84-1.11-4.09-.61-6.07-.19-2.41.52-4.79,1.18-7.16,1.83-4.81,1.31-9.65,2.54-14.68,2.19-1.93-.13-1.92,2.87,0,3,4.25.29,8.47-.48,12.57-1.52,2.09-.53,4.17-1.13,6.25-1.68,1.94-.51,4.02-1.19,6.03-1.3.83-.04,1.54.07,2.04.8.6.87.9,2.01,1.28,2.99.77,1.99,1.51,3.99,2.24,5.99,1.51,4.16,2.93,8.34,4.26,12.56,2.66,8.43,4.98,16.97,6.93,25.59s3.26,17.05,4.86,25.59c.89,4.76,1.96,9.5,3.63,14.06s3.95,8.8,6.25,13.04l1.3-2.26c-7.06-.15-14.13.49-21.03,1.94-.79.17-1.57.34-2.36.53-.13.03-1.03.35-1.17.22,0,0-.07-.49-.08-.52-.28-1.74-.69-3.48-1.08-5.2-.71-3.16-1.53-6.29-2.42-9.4-3.61-12.69-8.33-25.04-11.91-37.74-1.99-7.09-3.63-14.29-4.46-21.62-.15-1.32-1.52-1.94-2.56-1.06-5.79,4.87-11.59,9.74-17.38,14.61-1.38,1.16-2.75,2.35-4.16,3.49-.45.36-.43.45-.88.38-.35-.06-1-.52-1.31-.69l-2.63-1.38c-3.36-1.76-6.71-3.52-10.07-5.28l.54,2.05c8.81-12.7,18.68-24.64,29.49-35.69,1.35-1.38-.77-3.5-2.12-2.12h0Z"/>
  </g>
  <path d="M183.18,73.51c-11.92-12.96-22.07-27.51-30.19-43.13-2.32-4.47-4.47-9.02-6.46-13.64-.46-1.06-2.09-.9-2.59,0-6.8,12.1-9.15,25.93-10.79,39.54-1.73,14.4-4.04,29.56-.41,43.85,1.78,6.99,5.02,13.67,10.13,18.83,1.36,1.37,3.48-.75,2.12-2.12-9.36-9.45-11.46-23.48-11.08-36.23.22-7.26,1.1-14.5,1.93-21.72.76-6.63,1.64-13.26,3.08-19.78,1.61-7.26,3.95-14.36,7.6-20.86h-2.59c7.06,16.41,16.25,31.85,27.31,45.88,3.12,3.96,6.4,7.79,9.81,11.5,1.31,1.42,3.43-.7,2.12-2.12h0Z"/>
  <path d="M264.83,70.59c11.17-12.36,21.02-25.91,29.33-40.35,2.37-4.12,4.61-8.32,6.73-12.58h-2.59c7.78,12.15,11.56,26.24,14.07,40.32,1.3,7.3,2.31,14.65,3.27,22.01,1.03,7.9,1.88,16.09.36,23.98-1.37,7.09-4.66,14.26-10.74,18.49-1.57,1.1-.08,3.7,1.51,2.59,12.81-8.92,13.95-26.07,12.45-40.21-.84-7.89-1.99-15.77-3.27-23.6s-2.72-14.96-4.9-22.24c-2.4-8.01-5.65-15.79-10.17-22.84-.57-.89-2.06-1.06-2.59,0-7.36,14.79-16.25,28.84-26.58,41.75-2.89,3.62-5.9,7.14-9.01,10.57-1.29,1.43.82,3.56,2.12,2.12h0Z"/>
  <path d="M257.12,67.8c-13.73-2.04-27.8-.62-40.81,4.24-1.65.61-1.28,2.73.4,2.95,6.65.84,13,3.28,18.62,6.91l1.16-2.74c-8.86-2.25-17.84-3.96-26.91-5.13s-18.04-2.08-27.01-1.72c-4.79.19-9.49,1-13.9,2.93-1.05.46-.9,2.09,0,2.59,13.04,7.29,27.54,11.77,42.43,13.01,4.26.36,8.53.43,12.79.25,1.92-.08,1.93-3.08,0-3-18.71.8-37.38-3.72-53.71-12.86v2.59c7.64-3.34,16.42-2.73,24.54-2.22,8.84.55,17.65,1.63,26.36,3.24,4.9.91,9.77,1.98,14.61,3.21,1.67.42,2.58-1.82,1.16-2.74-6.09-3.94-12.94-6.41-20.13-7.32l.4,2.95c12.48-4.66,26.02-6.2,39.22-4.24,1.89.28,2.7-2.61.8-2.89h0Z"/>
  <path d="M145.21,122.7c-13.32,5.26-25.69,12.67-36.63,21.92-3.17,2.68-6.21,5.52-9.12,8.48-.92.93-.24,2.54,1.06,2.56,15.25.21,30.5.42,45.74.63l-.4-2.95c-13.46,3.45-24.99,12.73-31.77,24.8-.61,1.08.19,2.12,1.3,2.26,29.73,3.66,58.95,11.37,86.67,22.73,7.84,3.21,15.54,6.73,23.12,10.52,1.72.86,3.24-1.73,1.51-2.59-27.23-13.61-56.23-23.65-86.09-29.61-8.35-1.67-16.77-3.01-25.22-4.05l1.3,2.26c6.41-11.42,17.24-20.15,29.98-23.42,1.65-.42,1.28-2.92-.4-2.95-15.25-.21-30.5-.42-45.74-.63l1.06,2.56c12.57-12.81,27.72-23.04,44.43-29.63,1.78-.7,1-3.6-.8-2.89h0Z"/>
  <path d="M299.64,124.57c13.56,4.05,27.02,8.43,40.36,13.14v-2.89c-14.68,4.65-28.78,11.04-41.96,18.99-1.34.81-.68,2.68.76,2.8,13.45,1.08,26.89,2.16,40.34,3.24l-.76-2.8c-27.88,12.88-56.14,24.94-84.74,36.13-8,3.13-16.03,6.19-24.08,9.19-1.79.67-1.02,3.57.8,2.89,28.85-10.74,57.39-22.35,85.55-34.79,8.02-3.54,16.02-7.16,23.98-10.84,1.47-.68.57-2.69-.76-2.8-13.45-1.08-26.89-2.16-40.34-3.24l.76,2.8c12.97-7.82,26.8-14.12,41.24-18.69,1.46-.46,1.39-2.4,0-2.89-13.34-4.71-26.8-9.1-40.36-13.14-1.85-.55-2.65,2.34-.8,2.89h0Z"/>
  <path d="M166.33,112.42c15.63.57,31.28.7,46.91.38,1.93-.04,1.93-3.04,0-3-15.64.32-31.28.19-46.91-.38-1.93-.07-1.93,2.93,0,3h0Z"/>
  <path d="M164.23,109.49c-1.57,2.51-2.83,5.22-3.73,8.04s-1.73,5.88-1.46,8.74,2.3,4.78,4.43,6.47c2.36,1.88,4.94,3.34,7.75,4.44,1.8.71,2.58-2.19.8-2.89-2.29-.9-4.48-2.14-6.42-3.67s-3.7-3.01-3.57-5.63c.24-4.89,2.24-9.88,4.81-13.98,1.03-1.64-1.57-3.15-2.59-1.51h0Z"/>
  <path d="M192.15,111.87c-3.3,2.95-4.48,7.46-5.43,11.62-.51,2.22-.88,4.63.09,6.78s3.03,3.2,5.03,4.13c4.09,1.9,9.1,3.66,13.68,3.29,2.09-.17,4.17-.88,5.59-2.49s1.96-3.56,2.18-5.62c.27-2.58-.1-5.2-.31-7.77-.27-3.21-.53-6.42-.8-9.63-.16-1.91-3.16-1.93-3,0,.38,4.57.84,9.14,1.12,13.72.19,3.07.21,7.35-3.34,8.51-1.64.53-3.47.35-5.14.06-2.08-.37-4.12-.93-6.1-1.66-1.77-.65-3.84-1.4-5.3-2.63s-1.34-3.35-.98-5.12c.78-3.87,1.76-8.32,4.83-11.06,1.44-1.29-.68-3.4-2.12-2.12h0Z"/>
  <path d="M196.31,116.7l2.77.03c.46,0,.93,0,1.39.01.17,0,.34,0,.51.01.25.05.23-.09-.06-.41.1.01-1.09,1.13-1.18,1.19-.68.43-1.37.85-2.07,1.25-2.92,1.71-5.96,3.23-9.1,4.51-1.49.61-1.41,2.9.4,2.95,6.71.15,13.35-1.62,19.13-5.02l-1.82-2.36c-2.2,2.51-4.68,4.74-7.45,6.61-.96.65-1.01,2.5.36,2.74,2.48.43,4.96.87,7.45,1.3l-1.05-1.05c.16.82-.94,1.36-1.6,1.35-1.19-.02-2.31-.91-3.22-1.57-1.83-1.34-3.62-2.82-5.07-4.58-1.3-1.59-2.39-3.63-2.34-5.74.03-1.35.68-3.67,2.32-3.86l-1.45-1.9c-.31,1.74-.87,3.39-1.76,4.91s-2.43,2.68-3.09,4.3c-.79,1.96.36,3.49,1.59,4.91,1.41,1.62,2.82,3.24,4.23,4.86l.66-2.51c-1.55.21-2.93-.86-3.6-2.16l-1.3,2.26c3.14-.37,6.3-.49,9.45-.31,1.49.09,2.99.38,4.48.43s2.63-.67,3.11-2.06c.44-1.26.5-2.76.56-4.09.06-1.4,0-2.79-.19-4.18-.37-2.87-1.21-5.6-2.5-8.19-.86-1.73-3.45-.21-2.59,1.51,2.03,4.07,2.91,9.07,1.98,13.56-.1.51.02.48-.52.44-.6-.04-1.19-.15-1.79-.21-1.31-.14-2.62-.23-3.94-.27-2.7-.08-5.39.05-8.07.37-1.14.14-1.86,1.17-1.3,2.26,1.35,2.62,4.12,3.93,6.99,3.53,1.21-.17,1.31-1.76.66-2.51-1.2-1.37-2.39-2.75-3.59-4.12-.46-.53-1.35-1.22-1.56-1.91-.2-.65.41-1.15.81-1.6,2.13-2.39,3.57-5.26,4.14-8.42.15-.85-.39-2.02-1.45-1.9-2.41.28-4.02,1.91-4.83,4.14-.86,2.34-.49,4.86.5,7.09,1.05,2.39,2.87,4.39,4.82,6.09s4.22,3.8,6.78,4.3c3.07.6,6.14-1.77,5.53-5.02-.09-.47-.58-.97-1.05-1.05-2.48-.43-4.96-.87-7.45-1.3l.36,2.74c2.98-2.02,5.68-4.38,8.05-7.08,1.09-1.24-.29-3.26-1.82-2.36-5.35,3.14-11.41,4.75-17.62,4.61l.4,2.95c2.17-.89,4.31-1.86,6.4-2.94s4.29-2.19,6.17-3.6c1.46-1.09,2.84-3.34,1.3-4.97-.8-.84-1.86-.93-2.96-.94-1.32-.02-2.64-.03-3.96-.04-1.93-.02-1.93,2.98,0,3h0Z"/>
  <path d="M227.75,111.65c12.51.29,25.03-1.03,37.22-3.89,1.88-.44,1.08-3.33-.8-2.89-11.94,2.8-24.16,4.06-36.42,3.78-1.93-.04-1.93,2.96,0,3h0Z"/>
  <path d="M226.09,111.98c-2.94,3.41-3.51,8.81-3.14,13.15.39,4.61,2.85,8.18,6.96,10.27,1.81.92,3.75,1.57,5.71,2.12,2.12.59,4.44,1.06,6.62.49,2.33-.61,3.74-2.4,4.84-4.43,1.17-2.16,2.3-4.36,3.14-6.68,1.69-4.68,1.71-10.52-2.1-14.19-1.39-1.34-3.51.78-2.12,2.12,2.63,2.53,2.72,6.5,1.8,9.82-.54,1.93-1.39,3.73-2.3,5.51-.8,1.56-1.59,3.77-3.21,4.65-1.49.8-3.37.45-4.93.07s-3.26-.89-4.8-1.54c-3.22-1.35-5.77-3.55-6.45-7.11-.4-2.09-.22-4.32.04-6.41s.72-4.14,2.07-5.7c1.25-1.46-.86-3.59-2.12-2.12h0Z"/>
  <path d="M264.77,108.79c7.64,5.21,8.73,16.49,2.63,23.3-1.28,1.44.83,3.56,2.12,2.12,7.44-8.32,6.04-21.68-3.24-28.02-1.6-1.09-3.1,1.51-1.51,2.59h0Z"/>
  <path d="M230.18,117.35l7.49-.58-1.06-2.56c-1.06,1.1-2.32,1.62-3.85,1.54l.4,2.95c5.75-.91,11.5-1.83,17.26-2.74l-1.9-1.45s-3.09.81-3.41.9c-1.27.35-2.55.7-3.79,1.14-2.47.87-4.77,2.1-6.57,4.03l2.56,1.06c.06-3.66,3.08-6.33,5.65-8.55.8-.69.43-2.33-.66-2.51-3.37-.53-6.73-.54-10.09.06-1.68.3-3.34.75-4.94,1.35-1.34.5-3.08,1.01-3.92,2.27-.78,1.17-.54,2.75.37,3.77,1.13,1.27,2.78,1.37,4.36,1.46,3.68.2,7.36.38,11.04.57l-.76-2.8c-3.23,2.2-6.71,3.91-10.44,5.08l1.85,1.05c-.04-.23-.05-.46-.03-.7-.92-.51-1.28-.41-1.08.32-.12.4.05,1.07.07,1.48.06,1.15.11,2.3.17,3.44.07,1.43,2.04,2.12,2.8.76.54-.97,1.07-1.94,1.61-2.92.08-.14.72-1.1.69-1.25-.93-.36-1.29-.29-1.07.23.02.24.03.47.04.71.12,2.12.13,4.25.06,6.37-.05,1.65,2.68,2.09,2.95.4.31-1.96,1.05-3.73,2.39-5.22l-2.51-.66c.56,1.82.77,3.69.51,5.58l2.95.4c.11-4.2,1.51-8.34,4.13-11.65l-2.51-.66c.72,3.73.42,7.51-.78,11.1h2.89c-.42-2.07.14-4.25,1.57-5.82l-2.51-.66c.27.72.29,1.31-.11,1.99h2.59c-1.15-1.58.2-3.9,2.07-2.59l.36-2.74c-5.05,1.2-10,2.78-14.81,4.75-1.75.72-4.32,1.45-4.25,3.81.06,2.04,2.04,3.33,3.73,4.02,1.79.72,2.57-2.18.8-2.89-.44-.18-1.3-.59-1.46-1.08-.08-.24-.2-.02.27-.23.34-.15.68-.3,1.02-.44,1.68-.71,3.39-1.37,5.11-1.98,3.41-1.21,6.88-2.22,10.39-3.06,1.35-.32,1.35-2.05.36-2.74-1.78-1.25-4.37-1.01-5.86.61s-1.61,4.31-.32,6.09c.64.89,1.98,1.04,2.59,0,.78-1.32.96-2.86.41-4.3-.37-.99-1.69-1.57-2.51-.66-2.18,2.4-2.98,5.58-2.34,8.74.32,1.54,2.46,1.31,2.89,0,1.37-4.11,1.6-8.45.78-12.7-.2-1.04-1.82-1.53-2.51-.66-3.14,3.96-4.88,8.71-5.01,13.77-.04,1.65,2.71,2.1,2.95.4.34-2.44.22-4.81-.51-7.18-.32-1.03-1.72-1.53-2.51-.66-1.67,1.85-2.78,4.07-3.16,6.54l2.95.4c.06-1.73.06-3.46,0-5.19-.05-1.41.04-3.15-1-4.26-2.73-2.9-4.97,3.07-5.92,4.8l2.8.76c-.07-1.56-.15-3.12-.22-4.68-.06-1.16-.08-2.46-1.23-3.11-.92-.52-2.17-.24-2.9.49-.95.95-.86,2.33-.67,3.55.12.78,1.14,1.27,1.85,1.05,3.97-1.25,7.72-3.05,11.16-5.39,1.24-.84.77-2.72-.76-2.8-2.64-.14-5.28-.27-7.92-.41-1.27-.07-2.53-.11-3.8-.2-.34-.02-1.28-.02-1.44-.42-.14-.36.7-.58,1-.71,4.52-1.98,9.66-2.61,14.53-1.84l-.66-2.51c-3.23,2.8-6.45,6.13-6.53,10.67-.02,1.27,1.67,2.02,2.56,1.06,2.08-2.24,4.89-3.23,7.76-4.05,2.32-.66,6.78-1,6.89-4.14.04-1.06-.98-1.59-1.9-1.45-5.75.91-11.5,1.83-17.26,2.74-1.74.28-1.21,2.87.4,2.95,2.27.11,4.4-.79,5.97-2.42.84-.87.29-2.66-1.06-2.56l-7.49.58c-1.91.15-1.93,3.15,0,3h0Z"/>
  <path d="M194.56,201.61c-5.4,13.2-5.66,27.71-4.89,41.75.11,1.92,3.11,1.93,3,0-.76-13.81-.52-27.97,4.79-40.96.73-1.79-2.17-2.56-2.89-.8h0Z"/>
  <path d="M253.99,199.39c.36,10.14.8,20.28,1.33,30.41.1,1.92,3.1,1.93,3,0-.53-10.13-.97-20.27-1.33-30.41-.07-1.93-3.07-1.93-3,0h0Z"/>
  <path d="M349.55,208.26c-4.09-5.2-9.88-8.58-15.95-11.01-6.7-2.67-13.93-4.58-21.11-5.29s-14.3.12-20.69,3.28c-6,2.97-10.84,8.19-12.81,14.64s-.54,12.61,3.15,17.79c3.88,5.45,9.55,9.02,15.72,11.4,6.97,2.69,14.62,4.39,22.03,5.26s14.4.32,20.83-2.89c11.79-5.89,16.61-21.32,10.64-32.99-.88-1.72-3.47-.2-2.59,1.51,4.56,8.92,1.77,21.11-6.41,27-5.24,3.78-11.86,4.94-18.2,4.71-6.93-.25-13.93-1.89-20.56-3.83-5.99-1.76-11.94-4.3-16.41-8.79-3.93-3.96-6.54-9.26-6.01-14.94.55-5.96,4.33-11.37,9.24-14.62,5.38-3.55,11.89-4.89,18.26-4.76,7.56.15,15.17,2.13,22.25,4.7,6.29,2.29,12.29,5.61,16.48,10.94,1.19,1.52,3.3-.62,2.12-2.12h0Z"/>
  <path d="M154.02,280.1c6.01-1.61,12.25-2.09,18.44-1.43,5.14.55,11.19,1.73,15.14,5.34,2.05,1.88,3.15,4.3,3.88,6.94.8,2.86,1.42,5.81,1.87,8.74.87,5.57.77,11.65-2.13,16.65-1.48,2.54-3.68,4.43-6,6.18s-4.63,3.6-7.41,4.42-6.03.68-9.03.68c-3.33-.01-6.66-.02-9.99-.03-3.13-.01-6.44.29-9.54-.19-2.38-.36-4.3-1.64-5.61-3.64-2.75-4.19-3.42-9.9-3.92-14.76-.66-6.43-.19-13.32,3.63-18.78,3.57-5.11,9.71-7.46,15.35-9.47,1.81-.64,1.03-3.54-.8-2.89-5.64,2.01-11.59,4.31-15.64,8.92s-5.75,11.02-5.8,17.17c-.03,3.59.45,7.17,1.06,10.7.47,2.7,1.05,5.38,2.12,7.91.97,2.28,2.33,4.39,4.35,5.88,2.45,1.81,5.41,2.09,8.37,2.12,3.64.03,7.29.02,10.93.04s7.35.19,11-.06c3.25-.23,6.19-1.12,8.93-2.9s5.31-3.67,7.55-5.88c4.45-4.4,6.16-10.68,6.06-16.81-.06-3.54-.67-7.06-1.42-10.51-.66-3.04-1.32-6.18-2.82-8.93-3.25-5.94-10.23-8.26-16.51-9.34-7.6-1.31-15.39-.96-22.85,1.03-1.86.5-1.07,3.39.8,2.89h0Z"/>
  <path d="M219.5,147.75c1.93,0,1.93-3,0-3s-1.93,3,0,3h0Z"/>
  <path d="M208.4,163.79c4.21-3.95,9.73-6.51,15.5-7.02,2.91-.26,5.9-.17,8.45,1.42,2.36,1.46,4.14,3.71,5.85,5.86,1.2,1.51,3.31-.62,2.12-2.12-1.91-2.41-3.95-4.83-6.62-6.43-2.96-1.77-6.43-2.02-9.8-1.73-6.59.58-12.8,3.38-17.62,7.9-1.41,1.33.71,3.44,2.12,2.12h0Z"/>
  <path d="M190.07,143.26c-3.55,3.31-5.96,8.08-5.47,13.03.12,1.23.37,2.43.83,3.58s1.09,2.52,2.49,2.7c1.67.22,2.16-1.34,2.55-2.62s.7-2.6.95-3.93c.57-3.04.8-6.13.67-9.22-.08-1.92-3.08-1.93-3,0,.1,2.3.02,4.61-.31,6.89-.16,1.13-.38,2.25-.64,3.36-.13.55-.28,1.11-.43,1.66-.14.48-.24,1.13-.52,1.52l.54-.54-.17.1.76-.2c.29.19.39.2.29.04-.09-.17-.17-.34-.25-.51-.14-.32-.25-.65-.35-.98-.18-.6-.32-1.22-.39-1.84-.16-1.44-.03-2.89.36-4.28.72-2.59,2.28-4.81,4.23-6.63,1.41-1.32-.71-3.44-2.12-2.12h0Z"/>
</svg>