<?xml version="1.0" encoding="UTF-8"?>
<svg id="Layer_1" xmlns="http://www.w3.org/2000/svg" version="1.1" viewBox="0 0 640 480">
  <!-- Generator: Adobe Illustrator 29.8.1, SVG Export Plug-In . SVG Version: 2.1.1 Build 2)  -->
  <path d="M203.42,313.17c-.28-4.11-.69-8.28-.11-12.38.29-2.04.83-4.09,1.81-5.91,1.15-2.16,2.91-3.45,4.89-4.82,7.75-5.38,16.85-8.38,26.15-9.65,5.25-.72,10.57-.89,15.87-.74,1.93.06,1.93-2.94,0-3-9.98-.29-20.15.63-29.64,3.88-4.71,1.61-9.26,3.78-13.38,6.58-2.02,1.37-4.22,2.8-5.61,4.83-1.28,1.86-2.13,4.03-2.63,6.23-1.13,4.93-.68,10-.34,14.99.13,1.92,3.13,1.93,3,0h0Z"/>
  <path d="M390.73,247.7c18.78-3.22,37.35-9.42,56.59-8.86,4.01.12,7.86.47,11.33,2.65,3.23,2.04,5.22,5.17,6.86,8.53,4.03,8.23,6.68,17.04,9.11,25.85,1.22,4.4,2.38,8.81,3.62,13.2s2.82,8.96,4.35,13.41c3.03,8.82,5.96,17.68,8.56,26.64,2.62,9.02,4.91,18.15,6.69,27.38,1.32,6.82,2.73,14.79-1.19,21.1-.74,1.19-1.71,2.28-2.88,3.06-1.5,1-3.15,1.39-4.85,1.91-4.63,1.43-9.28,2.77-13.96,4.03-9.21,2.47-18.5,4.63-27.84,6.53-18.47,3.77-37.11,6.59-55.76,9.27s-38.34,5.34-57.38,8.85c-9.44,1.74-18.89,3.47-28.38,4.95-4.69.73-9.38,1.4-14.09,1.98-4.7.57-9.38,1.02-14.04,1.82-9.47,1.62-18.99,3.25-28.62,3.5-4.7.13-9.43-.06-14.08-.79-1.16-.18-2.32-.4-3.46-.64s-2.57-.37-3.51-1.03c-1.46-1.03-2.78-2.4-4.01-3.69-10.11-10.68-13.05-25.96-14.86-40.03-.46-3.56-.85-7.13-1.26-10.69-.22-1.9-3.22-1.92-3,0,1.69,14.8,3,30.44,10.35,43.72,1.8,3.24,3.98,6.29,6.52,9,1.28,1.37,2.67,2.65,4.13,3.82.92.73,1.63,1.04,2.77,1.32,1.22.31,2.45.58,3.68.81,9.72,1.82,19.66,1.42,29.42.2,4.9-.61,9.77-1.41,14.64-2.23,2.39-.41,4.8-.91,7.21-1.17s4.95-.51,7.42-.81c9.62-1.16,19.18-2.68,28.72-4.36,9.89-1.74,19.74-3.77,29.67-5.32,9.89-1.55,19.79-2.98,29.7-4.39,19.24-2.74,38.49-5.42,57.6-8.95,9.63-1.78,19.23-3.77,28.75-6.07,4.82-1.17,9.62-2.41,14.39-3.74,2.37-.66,4.74-1.35,7.09-2.05,2.09-.63,4.29-1.13,6.3-1.96,6.49-2.67,8.85-9.7,9.13-16.21.18-4.24-.64-8.36-1.44-12.51-.91-4.73-1.95-9.43-3.11-14.1-2.31-9.35-5.08-18.59-8.06-27.75-2.99-9.18-6.38-18.22-8.97-27.52-2.51-9.01-4.75-18.11-7.92-26.92-1.59-4.41-3.41-8.76-5.59-12.92-1.69-3.23-4.32-6.12-7.49-7.94-3.73-2.15-7.81-2.57-12.04-2.71-4.8-.15-9.6.12-14.37.67-9.78,1.13-19.37,3.36-28.97,5.45-4.75,1.03-9.5,2.02-14.29,2.84-1.9.33-1.09,3.22.8,2.89h0l.02-.02Z"/>
  <path d="M240.94,282.19c20.5-7.94,42.04-12.7,63.58-16.85,6.24-1.2,12.5-2.36,18.75-3.53,1.9-.35,1.09-3.25-.8-2.89-21.76,4.06-43.63,7.96-64.85,14.38-5.9,1.79-11.73,3.77-17.48,6-1.78.69-1.01,3.59.8,2.89h0Z"/>
  <g>
    <path d="M330.88,280.91c-14.96,4.34-29.56,9.94-43.58,16.75,2.86,4.43,5.73,8.86,8.59,13.29.21.32.44.67.79.85.42.21.92.13,1.39.05,9.38-1.76,18.76-3.52,28.14-5.27-10.05,23.53-10.85,49.99-19.08,74.21-.22.66-.44,1.41-.1,2,.31.53.97.73,1.55.9,7.59,2.13,14.91,5.29,21.68,9.32.06-4.16.13-8.32.69-12.45,1.16-8.7,4.46-16.94,7.4-25.22,7.12-20.09,12.22-40.89,15.19-62,.14-1.02.27-2.11-.17-3.04-.58-1.22-1.97-1.82-3.25-2.25-7.53-2.54-15.86-3.29-22.46-7.73"/>
    <path d="M330.47,279.47c-15.09,4.38-29.79,10.05-43.93,16.9-.71.35-.96,1.41-.54,2.05,2.28,3.53,4.56,7.05,6.85,10.59.89,1.37,1.81,3.64,3.46,4.24s3.92-.31,5.54-.6c8.24-1.55,16.5-3.09,24.74-4.64l-1.71-2.18c-5.41,12.77-8.24,26.34-10.89,39.88-1.33,6.82-2.64,13.63-4.26,20.38-.81,3.37-1.7,6.71-2.7,10.03-.47,1.55-1.07,3.07-1.49,4.63-.4,1.47-.15,3,1.25,3.83.77.46,1.72.64,2.57.89,1,.3,2,.61,2.99.94,2.01.67,4,1.42,5.95,2.23,3.86,1.63,7.6,3.53,11.19,5.66,1,.6,2.21-.22,2.24-1.33.07-4.48.12-8.99.84-13.43s1.89-8.56,3.26-12.72c2.8-8.46,6-16.76,8.59-25.3,2.59-8.54,4.88-17.49,6.76-26.37.93-4.4,1.76-8.82,2.51-13.26.38-2.26.74-4.52,1.06-6.78.27-1.87.78-3.97-.22-5.72-1.06-1.87-3.26-2.54-5.19-3.15-2.35-.73-4.75-1.33-7.14-1.92-4.83-1.22-9.65-2.53-13.86-5.31-1.62-1.06-3.08,1.56-1.47,2.61,3.56,2.34,7.61,3.74,11.69,4.85,2.08.57,4.19,1.06,6.27,1.61,1.94.51,4.09.94,5.89,1.83.74.37,1.31.82,1.38,1.7.1,1.05-.2,2.19-.35,3.23-.31,2.11-.65,4.22-.99,6.32-.73,4.37-1.55,8.7-2.46,13.03-1.83,8.65-4,17.23-6.54,25.69s-5.54,16.45-8.34,24.68c-1.56,4.58-2.96,9.24-3.75,14.03s-.88,9.61-.96,14.43l2.24-1.33c-6.08-3.6-12.55-6.52-19.27-8.64-.77-.24-1.53-.48-2.32-.7-.13-.04-1.07-.2-1.13-.38,0,0,.18-.46.19-.49.61-1.65,1.11-3.37,1.61-5.06.93-3.1,1.76-6.23,2.51-9.38,3.09-12.83,5.05-25.9,8.17-38.72,1.75-7.15,3.86-14.23,6.74-21.02.52-1.22-.37-2.44-1.71-2.18-7.44,1.4-14.88,2.79-22.32,4.19-1.77.33-3.55.7-5.34,1-.57.09-.6.18-.95-.1-.28-.22-.62-.94-.8-1.24l-1.61-2.49c-2.06-3.18-4.11-6.36-6.18-9.55l-.54,2.05c13.91-6.73,28.38-12.28,43.22-16.6,1.85-.54,1.05-3.43-.8-2.89h0Z"/>
  </g>
  <path d="M222.66,111.17c-11.92-12.96-22.07-27.51-30.19-43.13-2.32-4.47-4.47-9.02-6.46-13.64-.46-1.06-2.09-.9-2.59,0-6.8,12.1-9.15,25.93-10.79,39.54-1.73,14.4-4.04,29.56-.41,43.85,1.78,6.99,5.02,13.67,10.13,18.83,1.36,1.37,3.48-.75,2.12-2.12-9.36-9.45-11.46-23.48-11.08-36.23.22-7.26,1.1-14.5,1.93-21.72.76-6.63,1.64-13.26,3.08-19.78,1.61-7.26,3.95-14.36,7.6-20.86h-2.59c7.06,16.41,16.25,31.85,27.31,45.88,3.12,3.96,6.4,7.79,9.81,11.5,1.31,1.42,3.43-.7,2.12-2.12h.01Z"/>
  <path d="M304.31,108.25c11.17-12.36,21.02-25.91,29.33-40.35,2.37-4.12,4.61-8.32,6.73-12.58h-2.59c7.78,12.15,11.56,26.24,14.07,40.32,1.3,7.3,2.31,14.65,3.27,22.01,1.03,7.9,1.88,16.09.36,23.98-1.37,7.09-4.66,14.26-10.74,18.49-1.57,1.1-.08,3.7,1.51,2.59,12.81-8.92,13.95-26.07,12.45-40.21-.84-7.89-1.99-15.77-3.27-23.6s-2.72-14.96-4.9-22.24c-2.4-8.01-5.65-15.79-10.17-22.84-.57-.89-2.06-1.06-2.59,0-7.36,14.79-16.25,28.84-26.58,41.75-2.89,3.62-5.9,7.14-9.01,10.57-1.29,1.43.82,3.56,2.12,2.12h0Z"/>
  <path d="M296.6,105.46c-13.73-2.04-27.8-.62-40.81,4.24-1.65.61-1.28,2.73.4,2.95,6.65.84,13,3.28,18.62,6.91l1.16-2.74c-8.86-2.25-17.84-3.96-26.91-5.13s-18.04-2.08-27.01-1.72c-4.79.19-9.49,1-13.9,2.93-1.05.46-.9,2.09,0,2.59,13.04,7.29,27.54,11.77,42.43,13.01,4.26.36,8.53.43,12.79.25,1.92-.08,1.93-3.08,0-3-18.71.8-37.38-3.72-53.71-12.86v2.59c7.64-3.34,16.42-2.73,24.54-2.22,8.84.55,17.65,1.63,26.36,3.24,4.9.91,9.77,1.98,14.61,3.21,1.67.42,2.58-1.82,1.16-2.74-6.09-3.94-12.94-6.41-20.13-7.32l.4,2.95c12.48-4.66,26.02-6.2,39.22-4.24,1.89.28,2.7-2.61.8-2.89h-.02Z"/>
  <path d="M184.69,160.36c-13.32,5.26-25.69,12.67-36.63,21.92-3.17,2.68-6.21,5.52-9.12,8.48-.92.93-.24,2.54,1.06,2.56,15.25.21,30.5.42,45.74.63l-.4-2.95c-13.46,3.45-24.99,12.73-31.77,24.8-.61,1.08.19,2.12,1.3,2.26,29.73,3.66,58.95,11.37,86.67,22.73,7.84,3.21,15.54,6.73,23.12,10.52,1.72.86,3.24-1.73,1.51-2.59-27.23-13.61-56.23-23.65-86.09-29.61-8.35-1.67-16.77-3.01-25.22-4.05l1.3,2.26c6.41-11.42,17.24-20.15,29.98-23.42,1.65-.42,1.28-2.92-.4-2.95-15.25-.21-30.5-.42-45.74-.63l1.06,2.56c12.57-12.81,27.72-23.04,44.43-29.63,1.78-.7,1-3.6-.8-2.89h0Z"/>
  <path d="M339.12,162.23c13.56,4.05,27.02,8.43,40.36,13.14v-2.89c-14.68,4.65-28.78,11.04-41.96,18.99-1.34.81-.68,2.68.76,2.8,13.45,1.08,26.89,2.16,40.34,3.24l-.76-2.8c-27.88,12.88-56.14,24.94-84.74,36.13-8,3.13-16.03,6.19-24.08,9.19-1.79.67-1.02,3.57.8,2.89,28.85-10.74,57.39-22.35,85.55-34.79,8.02-3.54,16.02-7.16,23.98-10.84,1.47-.68.57-2.69-.76-2.8-13.45-1.08-26.89-2.16-40.34-3.24l.76,2.8c12.97-7.82,26.8-14.12,41.24-18.69,1.46-.46,1.39-2.4,0-2.89-13.34-4.71-26.8-9.1-40.36-13.14-1.85-.55-2.65,2.34-.8,2.89h0Z"/>
  <path d="M205.81,150.08c15.63.57,31.28.7,46.91.38,1.93-.04,1.93-3.04,0-3-15.64.32-31.28.19-46.91-.38-1.93-.07-1.93,2.93,0,3h0Z"/>
  <path d="M203.71,147.15c-1.57,2.51-2.83,5.22-3.73,8.04s-1.73,5.88-1.46,8.74c.27,2.86,2.3,4.78,4.43,6.47,2.36,1.88,4.94,3.34,7.75,4.44,1.8.71,2.58-2.19.8-2.89-2.29-.9-4.48-2.14-6.42-3.67s-3.7-3.01-3.57-5.63c.24-4.89,2.24-9.88,4.81-13.98,1.03-1.64-1.57-3.15-2.59-1.51h-.02Z"/>
  <path d="M231.63,149.53c-3.3,2.95-4.48,7.46-5.43,11.62-.51,2.22-.88,4.63.09,6.78s3.03,3.2,5.03,4.13c4.09,1.9,9.1,3.66,13.68,3.29,2.09-.17,4.17-.88,5.59-2.49s1.96-3.56,2.18-5.62c.27-2.58-.1-5.2-.31-7.77-.27-3.21-.53-6.42-.8-9.63-.16-1.91-3.16-1.93-3,0,.38,4.57.84,9.14,1.12,13.72.19,3.07.21,7.35-3.34,8.51-1.64.53-3.47.35-5.14.06-2.08-.37-4.12-.93-6.1-1.66-1.77-.65-3.84-1.4-5.3-2.63s-1.34-3.35-.98-5.12c.78-3.87,1.76-8.32,4.83-11.06,1.44-1.29-.68-3.4-2.12-2.12h0Z"/>
  <path d="M235.79,154.36l2.77.03c.46,0,.93,0,1.39.01.17,0,.34,0,.51.01.25.05.23-.09-.06-.41.1.01-1.09,1.13-1.18,1.19-.68.43-1.37.85-2.07,1.25-2.92,1.71-5.96,3.23-9.1,4.51-1.49.61-1.41,2.9.4,2.95,6.71.15,13.35-1.62,19.13-5.02l-1.82-2.36c-2.2,2.51-4.68,4.74-7.45,6.61-.96.65-1.01,2.5.36,2.74,2.48.43,4.96.87,7.45,1.3l-1.05-1.05c.16.82-.94,1.36-1.6,1.35-1.19-.02-2.31-.91-3.22-1.57-1.83-1.34-3.62-2.82-5.07-4.58-1.3-1.59-2.39-3.63-2.34-5.74.03-1.35.68-3.67,2.32-3.86l-1.45-1.9c-.31,1.74-.87,3.39-1.76,4.91s-2.43,2.68-3.09,4.3c-.79,1.96.36,3.49,1.59,4.91,1.41,1.62,2.82,3.24,4.23,4.86l.66-2.51c-1.55.21-2.93-.86-3.6-2.16l-1.3,2.26c3.14-.37,6.3-.49,9.45-.31,1.49.09,2.99.38,4.48.43s2.63-.67,3.11-2.06c.44-1.26.5-2.76.56-4.09.06-1.4,0-2.79-.19-4.18-.37-2.87-1.21-5.6-2.5-8.19-.86-1.73-3.45-.21-2.59,1.51,2.03,4.07,2.91,9.07,1.98,13.56-.1.51.02.48-.52.44-.6-.04-1.19-.15-1.79-.21-1.31-.14-2.62-.23-3.94-.27-2.7-.08-5.39.05-8.07.37-1.14.14-1.86,1.17-1.3,2.26,1.35,2.62,4.12,3.93,6.99,3.53,1.21-.17,1.31-1.76.66-2.51-1.2-1.37-2.39-2.75-3.59-4.12-.46-.53-1.35-1.22-1.56-1.91-.2-.65.41-1.15.81-1.6,2.13-2.39,3.57-5.26,4.14-8.42.15-.85-.39-2.02-1.45-1.9-2.41.28-4.02,1.91-4.83,4.14-.86,2.34-.49,4.86.5,7.09,1.05,2.39,2.87,4.39,4.82,6.09s4.22,3.8,6.78,4.3c3.07.6,6.14-1.77,5.53-5.02-.09-.47-.58-.97-1.05-1.05-2.48-.43-4.96-.87-7.45-1.3l.36,2.74c2.98-2.02,5.68-4.38,8.05-7.08,1.09-1.24-.29-3.26-1.82-2.36-5.35,3.14-11.41,4.75-17.62,4.61l.4,2.95c2.17-.89,4.31-1.86,6.4-2.94s4.29-2.19,6.17-3.6c1.46-1.09,2.84-3.34,1.3-4.97-.8-.84-1.86-.93-2.96-.94-1.32-.02-2.64-.03-3.96-.04-1.93-.02-1.93,2.98,0,3h0l.05.02Z"/>
  <path d="M267.23,149.31c12.51.29,25.03-1.03,37.22-3.89,1.88-.44,1.08-3.33-.8-2.89-11.94,2.8-24.16,4.06-36.42,3.78-1.93-.04-1.93,2.96,0,3h0Z"/>
  <path d="M265.57,149.64c-2.94,3.41-3.51,8.81-3.14,13.15.39,4.61,2.85,8.18,6.96,10.27,1.81.92,3.75,1.57,5.71,2.12,2.12.59,4.44,1.06,6.62.49,2.33-.61,3.74-2.4,4.84-4.43,1.17-2.16,2.3-4.36,3.14-6.68,1.69-4.68,1.71-10.52-2.1-14.19-1.39-1.34-3.51.78-2.12,2.12,2.63,2.53,2.72,6.5,1.8,9.82-.54,1.93-1.39,3.73-2.3,5.51-.8,1.56-1.59,3.77-3.21,4.65-1.49.8-3.37.45-4.93.07s-3.26-.89-4.8-1.54c-3.22-1.35-5.77-3.55-6.45-7.11-.4-2.09-.22-4.32.04-6.41s.72-4.14,2.07-5.7c1.25-1.46-.86-3.59-2.12-2.12h0v-.02Z"/>
  <path d="M304.25,146.45c7.64,5.21,8.73,16.49,2.63,23.3-1.28,1.44.83,3.56,2.12,2.12,7.44-8.32,6.04-21.68-3.24-28.02-1.6-1.09-3.1,1.51-1.51,2.59h0Z"/>
  <path d="M269.66,155.01l7.49-.58-1.06-2.56c-1.06,1.1-2.32,1.62-3.85,1.54l.4,2.95c5.75-.91,11.5-1.83,17.26-2.74l-1.9-1.45s-3.09.81-3.41.9c-1.27.35-2.55.7-3.79,1.14-2.47.87-4.77,2.1-6.57,4.03l2.56,1.06c.06-3.66,3.08-6.33,5.65-8.55.8-.69.43-2.33-.66-2.51-3.37-.53-6.73-.54-10.09.06-1.68.3-3.34.75-4.94,1.35-1.34.5-3.08,1.01-3.92,2.27-.78,1.17-.54,2.75.37,3.77,1.13,1.27,2.78,1.37,4.36,1.46,3.68.2,7.36.38,11.04.57l-.76-2.8c-3.23,2.2-6.71,3.91-10.44,5.08l1.85,1.05c-.04-.23-.05-.46-.03-.7-.92-.51-1.28-.41-1.08.32-.12.4.05,1.07.07,1.48.06,1.15.11,2.3.17,3.44.07,1.43,2.04,2.12,2.8.76.54-.97,1.07-1.94,1.61-2.92.08-.14.72-1.1.69-1.25-.93-.36-1.29-.29-1.07.23.02.24.03.47.04.71.12,2.12.13,4.25.06,6.37-.05,1.65,2.68,2.09,2.95.4.31-1.96,1.05-3.73,2.39-5.22l-2.51-.66c.56,1.82.77,3.69.51,5.58l2.95.4c.11-4.2,1.51-8.34,4.13-11.65l-2.51-.66c.72,3.73.42,7.51-.78,11.1h2.89c-.42-2.07.14-4.25,1.57-5.82l-2.51-.66c.27.72.29,1.31-.11,1.99h2.59c-1.15-1.58.2-3.9,2.07-2.59l.36-2.74c-5.05,1.2-10,2.78-14.81,4.75-1.75.72-4.32,1.45-4.25,3.81.06,2.04,2.04,3.33,3.73,4.02,1.79.72,2.57-2.18.8-2.89-.44-.18-1.3-.59-1.46-1.08-.08-.24-.2-.02.27-.23.34-.15.68-.3,1.02-.44,1.68-.71,3.39-1.37,5.11-1.98,3.41-1.21,6.88-2.22,10.39-3.06,1.35-.32,1.35-2.05.36-2.74-1.78-1.25-4.37-1.01-5.86.61s-1.61,4.31-.32,6.09c.64.89,1.98,1.04,2.59,0,.78-1.32.96-2.86.41-4.3-.37-.99-1.69-1.57-2.51-.66-2.18,2.4-2.98,5.58-2.34,8.74.32,1.54,2.46,1.31,2.89,0,1.37-4.11,1.6-8.45.78-12.7-.2-1.04-1.82-1.53-2.51-.66-3.14,3.96-4.88,8.71-5.01,13.77-.04,1.65,2.71,2.1,2.95.4.34-2.44.22-4.81-.51-7.18-.32-1.03-1.72-1.53-2.51-.66-1.67,1.85-2.78,4.07-3.16,6.54l2.95.4c.06-1.73.06-3.46,0-5.19-.05-1.41.04-3.15-1-4.26-2.73-2.9-4.97,3.07-5.92,4.8l2.8.76c-.07-1.56-.15-3.12-.22-4.68-.06-1.16-.08-2.46-1.23-3.11-.92-.52-2.17-.24-2.9.49-.95.95-.86,2.33-.67,3.55.12.78,1.14,1.27,1.85,1.05,3.97-1.25,7.72-3.05,11.16-5.39,1.24-.84.77-2.72-.76-2.8-2.64-.14-5.28-.27-7.92-.41-1.27-.07-2.53-.11-3.8-.2-.34-.02-1.28-.02-1.44-.42-.14-.36.7-.58,1-.71,4.52-1.98,9.66-2.61,14.53-1.84l-.66-2.51c-3.23,2.8-6.45,6.13-6.53,10.67-.02,1.27,1.67,2.02,2.56,1.06,2.08-2.24,4.89-3.23,7.76-4.05,2.32-.66,6.78-1,6.89-4.14.04-1.06-.98-1.59-1.9-1.45-5.75.91-11.5,1.83-17.26,2.74-1.74.28-1.21,2.87.4,2.95,2.27.11,4.4-.79,5.97-2.42.84-.87.29-2.66-1.06-2.56l-7.49.58c-1.91.15-1.93,3.15,0,3h0Z"/>
  <path d="M234.04,239.27c-5.4,13.2-5.66,27.71-4.89,41.75.11,1.92,3.11,1.93,3,0-.76-13.81-.52-27.97,4.79-40.96.73-1.79-2.17-2.56-2.89-.8h0Z"/>
  <path d="M293.47,237.05c.36,10.14.8,20.28,1.33,30.41.1,1.92,3.1,1.93,3,0-.53-10.13-.97-20.27-1.33-30.41-.07-1.93-3.07-1.93-3,0h0Z"/>
  <path d="M389.03,245.92c-4.09-5.2-9.88-8.58-15.95-11.01-6.7-2.67-13.93-4.58-21.11-5.29s-14.3.12-20.69,3.28c-6,2.97-10.84,8.19-12.81,14.64s-.54,12.61,3.15,17.79c3.88,5.45,9.55,9.02,15.72,11.4,6.97,2.69,14.62,4.39,22.03,5.26s14.4.32,20.83-2.89c11.79-5.89,16.61-21.32,10.64-32.99-.88-1.72-3.47-.2-2.59,1.51,4.56,8.92,1.77,21.11-6.41,27-5.24,3.78-11.86,4.94-18.2,4.71-6.93-.25-13.93-1.89-20.56-3.83-5.99-1.76-11.94-4.3-16.41-8.79-3.93-3.96-6.54-9.26-6.01-14.94.55-5.96,4.33-11.37,9.24-14.62,5.38-3.55,11.89-4.89,18.26-4.76,7.56.15,15.17,2.13,22.25,4.7,6.29,2.29,12.29,5.61,16.48,10.94,1.19,1.52,3.3-.62,2.12-2.12h.02Z"/>
  <path d="M193.5,317.76c6.01-1.61,12.25-2.09,18.44-1.43,5.14.55,11.19,1.73,15.14,5.34,2.05,1.88,3.15,4.3,3.88,6.94.8,2.86,1.42,5.81,1.87,8.74.87,5.57.77,11.65-2.13,16.65-1.48,2.54-3.68,4.43-6,6.18s-4.63,3.6-7.41,4.42-6.03.68-9.03.68c-3.33-.01-6.66-.02-9.99-.03-3.13-.01-6.44.29-9.54-.19-2.38-.36-4.3-1.64-5.61-3.64-2.75-4.19-3.42-9.9-3.92-14.76-.66-6.43-.19-13.32,3.63-18.78,3.57-5.11,9.71-7.46,15.35-9.47,1.81-.64,1.03-3.54-.8-2.89-5.64,2.01-11.59,4.31-15.64,8.92s-5.75,11.02-5.8,17.17c-.03,3.59.45,7.17,1.06,10.7.47,2.7,1.05,5.38,2.12,7.91.97,2.28,2.33,4.39,4.35,5.88,2.45,1.81,5.41,2.09,8.37,2.12,3.64.03,7.29.02,10.93.04s7.35.19,11-.06c3.25-.23,6.19-1.12,8.93-2.9s5.31-3.67,7.55-5.88c4.45-4.4,6.16-10.68,6.06-16.81-.06-3.54-.67-7.06-1.42-10.51-.66-3.04-1.32-6.18-2.82-8.93-3.25-5.94-10.23-8.26-16.51-9.34-7.6-1.31-15.39-.96-22.85,1.03-1.86.5-1.07,3.39.8,2.89h0Z"/>
  <path d="M306.58,383.96c14.1-3.24,28.43-5.32,42.77-7.2,7.2-.95,14.41-1.88,21.61-2.81,3.63-.47,7.26-.94,10.89-1.41,1.82-.24,3.63-.48,5.45-.71,1.63-.21,3.34-.48,4.97-.13,5.86,1.24,7.41,9.06,2.53,12.49-2.6,1.83-6.14,2.49-9.2,3.1-3.5.7-7.06,1.12-10.61,1.44-7.21.64-14.41.52-21.64.52-7.18,0-14.21.66-21.31,1.65-4.01.56-8.04,1.11-12.09,1.33-2,.11-4.01.14-6.01.06-1.58-.07-3.31-.1-4.81-.69-3.71-1.48-.8-5.67.23-8.05,1.47-3.4,2.08-7.1,1.79-10.8-.12-1.49-1.94-2.03-2.8-.76-2.96,4.4-4.38,9.71-4.02,15,.13,1.92,3.13,1.93,3,0-.33-4.81.91-9.48,3.61-13.48l-2.8-.76c.29,3.63-.34,7.17-1.92,10.46-1.31,2.73-3,5.98-1.15,8.88,1.62,2.54,4.91,2.95,7.65,3.13,3.84.26,7.7.05,11.53-.34,7.73-.8,15.37-2.27,23.16-2.54s15.76.17,23.64-.31c3.87-.23,7.72-.63,11.56-1.19s7.36-1.23,10.79-2.59c2.94-1.17,5.4-3.05,6.61-6.04,1.11-2.74.98-5.89-.46-8.48s-4-4.46-6.86-4.98c-1.81-.33-3.61-.14-5.41.09-1.98.25-3.96.51-5.94.77-7.92,1.03-15.85,2.06-23.77,3.09-17.35,2.25-34.74,4.47-51.8,8.38-1.88.43-1.08,3.32.8,2.89h0Z"/>
  <path d="M311.16,386.46c-.41-.14-.8-.6-.74-1.06.18-1.3-1.41-2.75-2.51-1.46s-1.88,2.71-2.32,4.36c-.13.49-.01,1.11.39,1.46,3.11,2.68,8.39,1.89,10.26-1.91.45-.92-.07-2.38-1.3-2.26-1.72.17-3.32-.1-4.85-.94l-1.16,2.74c2.18.42,4.08,1.29,5.84,2.64v-2.59c-1.85,1.05-3.83,1.59-5.96,1.63-1.61.03-2.13,2.7-.4,2.95,4.33.61,8.68.83,13.05.56,1.91-.12,1.95-3.05,0-3-2.93.07-5.83-.15-8.71-.71l.36,2.74c2.27-1.7,5.04-2.42,7.84-1.82l-.9-2.2c-1.21,1.7-.17,3.99,1.59,4.79,1.99.9,4.64.36,6.7-.05,4.51-.9,8.67-3.04,12.14-6.04.98-.84.2-2.62-1.06-2.56-2.64.12-5.28.24-7.91.36-.68.03-2.97.51-3.49-.07-.4-.44.03-1.27.36-1.6.7-.68,1.89-.83,2.81-.93,1.22-.14,2.47-.2,3.7-.24,2.53-.08,5.07,0,7.59.24v-3c-3.21.13-6.34.78-9.31,1.99-1.74.71-1.06,3.54.8,2.89,9.4-3.3,19.64-3.43,29.48-4.2,5.23-.41,10.46-.82,15.69-1.23,2.66-.21,5.32-.38,7.97-.62,1.64-.15,3.72-.74,4.33-2.48.8-2.23-1.48-3.42-3.26-3.91-2.17-.6-4.45-.52-6.66-.21-4.91.69-9.73,2.14-14.59,3.09s-10.15,1.81-15.26,2.46-10.11.91-15.15,1.47c-2.37.26-5.11.6-7.13,1.97-1.66,1.13-2.59,3.41-1.28,5.17.72.96,1.79,1.18,2.93,1.25,1.42.08,2.85.06,4.27.02,2.83-.07,5.64-.35,8.43-.75,1.74-.25,1.21-2.87-.4-2.95-4.48-.2-8.95-.03-13.4.52l.4,2.95c4.65-1.29,9.38-2.22,14.18-2.74l-.4-2.95c-4.88,1.49-9.75,3.11-13.7,6.46-.84.71-.4,2.29.66,2.51,5.1,1.03,10.32.83,15.31-.67,1.86-.56,1.08-3.27-.8-2.89-2.37.48-4.74.96-7.12,1.44-1.39.28-1.47,2.67,0,2.89,2.13.33,4.27.53,6.43.58,1.93.04,1.93-2.95,0-3-2.85-.07-5.69-.14-8.54-.21v3c6.9-.04,13.8-.07,20.69-.11s13.62-.01,20.41-.55c3.26-.26,6.55-.6,9.76-1.23,2.75-.54,5.53-1.52,7.57-3.54s2.95-4.56,2.4-7.27c-.5-2.45-2.33-4.57-4.47-5.79-6.23-3.57-14.31-.19-20.41,2.02-1.6.58-1.32,2.81.4,2.95,3.32.26,6.65.32,9.97.15,1.37-.07,2.79-.11,4.13-.42.65-.15,1.29-.39,1.88-.7.76-.41,1.36-1.08,2.14-1.45,2.28-1.08,4.87,1.09,4.01,3.53-.82,2.3-4.18,3.26-6.18,4.13-5.99,2.62-11.95,4.64-18.51,5.02s-13.13.28-19.67.22c-7.66-.07-15.32-.26-22.98-.45v3c8.21-.67,16.43-1.34,24.64-2.01,1.9-.15,1.96-2.95,0-3-3.44-.09-6.87-.18-10.31-.27l.4,2.95c6.51-1.25,13.01-2.5,19.52-3.75,1.73-.33,1.21-2.86-.4-2.95-7.02-.39-14.06-.47-21.09-.25l.4,2.95c4.59-.93,9.22-1.53,13.9-1.8l-.4-2.95c-3.42,1.07-6.84,2.15-10.26,3.22-1.69.53-1.24,2.77.4,2.95,5.89.63,11.81.56,17.68-.22.81-.11,1.49-.61,1.5-1.5,0-.75-.7-1.58-1.5-1.5-6.56.68-13.06,1.78-19.48,3.32-1.62.39-1.31,3.06.4,2.95,5.64-.36,11.27-.72,16.91-1.08l-.76-2.8c-1.28.95-2.64,1.47-4.24,1.5l.4,2.95c4.72-1.85,9.67-2.92,14.74-3.13,1.92-.08,1.94-3.01,0-3-3.32.01-6.63-.16-9.93-.52l1.06,2.56c2.2-2.57,5.25-4.23,8.64-4.51,1.91-.15,1.93-3.16,0-3-7.69.62-15.38,1.24-23.07,1.86l.4,2.95c6.48-1.65,13.12-2.35,19.8-2.1l-.4-2.95c-4.47,1.23-8.93,2.46-13.4,3.69-1.68.46-1.26,2.85.4,2.95,4.47.26,8.94.11,13.38-.45l-1.06-2.56c-1.76,1.37-3.68,2.53-5.67,3.52-1.43.71-.61,2.71.76,2.8,5.99.39,11.98.62,17.98.71l-.76-2.8c-2.22,1.08-4.6,1.57-7.06,1.54l.76,2.8c1.21-.74,2.17-1.71,2.9-2.93.52-.88,0-1.89-.9-2.2-3.08-1.08-6.33-1.54-9.59-1.37l.76,2.8c2.67-1.56,5.47-2.79,8.44-3.68,1.61-.49,1.32-2.92-.4-2.95-3.26-.06-6.51-.11-9.77-.17l.4,2.95c4.6-1.17,9.29-1.64,14.03-1.43l-.4-2.95c-3.8,1.51-7.6,3.01-11.4,4.52-1.46.58-1.43,3,.4,2.95,5.19-.16,10.35-.86,15.4-2.07l-1.16-2.74c-4.53,2.14-9.19,3.97-13.96,5.51-1.87.6-1.08,3.2.8,2.89,5.24-.85,10.43-2.02,15.53-3.49l-1.46-2.51c-1.55,1.28-3.32,2.13-5.27,2.62l1.16,2.74c3.73-1.92,7.47-3.85,11.2-5.77l-1.51-2.59c-2.19,1.26-4.45,2.32-6.83,3.17l.8,2.89c4.6-1.74,9.07-3.81,13.36-6.22,1.45-.81.47-3.34-1.16-2.74l-7.45,2.73,1.16,2.74c1.7-1.12,3.4-2.25,5.1-3.37,1.36-.9.54-3.26-1.16-2.74-2.88.88-5.67,1.98-8.38,3.29l1.82,2.36,1.45-1.69c.99-1.16.04-2.8-1.46-2.51-2.87.56-5.75,1.11-8.62,1.67l.8,2.89c4.03-.9,8.02-1.99,11.95-3.28l-.8-2.89c-1.25.43-2.51.85-3.76,1.28l1.85,1.85c.57-1.94.25-4.03-.98-5.65l-.54,2.05c2.98-1.33,6.98,1.18,7.21,4.39l1.1-1.45c-9.84,3.21-19.9,5.72-30.09,7.52-1.9.34-1.09,3.23.8,2.89,10.2-1.8,20.25-4.31,30.09-7.52.59-.19,1.15-.78,1.1-1.45-.4-5.62-6.61-9.25-11.73-6.98-.68.3-.99,1.46-.54,2.05.77,1.02,1.04,2.1.68,3.34-.31,1.05.75,2.22,1.85,1.85,1.25-.43,2.51-.85,3.76-1.28,1.81-.62,1.05-3.5-.8-2.89-3.93,1.29-7.91,2.38-11.95,3.28-1.9.42-1.08,3.26.8,2.89,2.87-.56,5.75-1.11,8.62-1.67l-1.46-2.51c-.48.56-.96,1.13-1.45,1.69-1.12,1.31.26,3.11,1.82,2.36,2.48-1.2,5.03-2.19,7.67-2.99l-1.16-2.74-5.1,3.37c-1.34.88-.53,3.36,1.16,2.74l7.45-2.73-1.16-2.74c-4.07,2.28-8.28,4.27-12.65,5.92-1.78.67-1.04,3.55.8,2.89,2.62-.94,5.14-2.09,7.55-3.48,1.68-.97.2-3.47-1.51-2.59-3.73,1.92-7.47,3.85-11.2,5.77-1.54.8-.46,3.14,1.16,2.74,2.46-.62,4.64-1.77,6.59-3.39,1.18-.98-.09-2.9-1.46-2.51-5.11,1.47-10.29,2.64-15.53,3.49l.8,2.89c5.01-1.62,9.91-3.57,14.67-5.81,1.58-.75.44-3.13-1.16-2.74-4.8,1.16-9.67,1.81-14.6,1.97l.4,2.95c3.8-1.51,7.6-3.01,11.4-4.52,1.53-.61,1.38-2.87-.4-2.95-4.99-.22-9.99.31-14.83,1.54-1.66.42-1.28,2.92.4,2.95,3.26.06,6.51.11,9.77.17l-.4-2.95c-3.2.97-6.27,2.3-9.15,3.98-1.24.72-.76,2.88.76,2.8,3.02-.16,5.94.26,8.8,1.26l-.9-2.2c-.47.79-1.04,1.37-1.82,1.85-1.27.78-.75,2.78.76,2.8,3,.04,5.88-.64,8.57-1.95,1.39-.68.65-2.77-.76-2.8-6-.09-11.99-.32-17.98-.71l.76,2.8c2.24-1.11,4.31-2.46,6.28-3.99.98-.77.19-2.72-1.06-2.56-4.44.56-8.91.7-13.38.45l.4,2.95c4.47-1.23,8.93-2.46,13.4-3.69,1.66-.46,1.28-2.88-.4-2.95-6.93-.26-13.87.49-20.59,2.21-1.6.41-1.32,3.08.4,2.95,7.69-.62,15.38-1.24,23.07-1.86v-3c-4.16.34-8.03,2.2-10.77,5.39-.89,1.04-.25,2.42,1.06,2.56,3.3.36,6.61.53,9.93.52v-3c-5.33.22-10.57,1.29-15.54,3.23-1.48.58-1.41,2.98.4,2.95,2.1-.04,4.07-.66,5.76-1.91,1.07-.8.89-2.9-.76-2.8-5.64.36-11.27.72-16.91,1.08l.4,2.95c6.15-1.48,12.39-2.56,18.68-3.22v-3c-5.87.78-11.79.85-17.68.22l.4,2.95c3.42-1.07,6.84-2.15,10.26-3.22,1.55-.49,1.36-3.05-.4-2.95-4.94.29-9.85.93-14.69,1.91-1.66.34-1.28,3,.4,2.95,7.03-.22,14.07-.13,21.09.25l-.4-2.95c-6.51,1.25-13.01,2.5-19.52,3.75-1.71.33-1.24,2.9.4,2.95,3.44.09,6.87.18,10.31.27v-3c-8.21.67-16.43,1.34-24.64,2.01-1.9.15-1.96,2.95,0,3,7.58.19,15.15.38,22.73.45s14.9.32,22.25-.4,13.4-3.28,19.74-6.15c2.4-1.09,4.94-2.62,5.61-5.37s-.83-5.83-3.54-6.87c-1.49-.57-3.2-.54-4.64.14-.77.36-1.38.94-2.1,1.39s-1.5.65-2.35.76c-4.1.52-8.38.35-12.49.03l.4,2.95c2.82-1.02,5.65-2.05,8.58-2.75,2.57-.61,5.34-1,7.92-.24,2.12.62,4.16,2.26,4.65,4.5s-.97,4.29-2.76,5.46c-2.26,1.47-5.07,1.87-7.69,2.25-2.9.42-5.83.68-8.76.86-5.99.36-11.99.35-17.99.38-6.9.04-13.8.07-20.69.11-1.93.01-1.93,2.95,0,3,2.85.07,5.69.14,8.54.21v-3c-1.89-.04-3.77-.18-5.63-.47v2.89c2.37-.48,4.74-.96,7.12-1.44l-.8-2.89c-4.47,1.34-9.14,1.6-13.71.67l.66,2.51c3.52-2.99,8.04-4.36,12.38-5.69,1.54-.47,1.35-3.14-.4-2.95-5.06.55-10.07,1.49-14.98,2.85-1.57.43-1.33,3.16.4,2.95,4.45-.55,8.92-.73,13.4-.52l-.4-2.95c-2.14.31-4.29.51-6.45.6-1.03.05-2.06.07-3.08.07-.47,0-.95,0-1.42-.02-.23,0-1.35.1-1.47-.03-.83-.87,3.31-1.94,3.64-2.02,2.08-.45,4.22-.54,6.33-.71,8.65-.68,17.27-1.82,25.79-3.43,4.27-.8,8.48-1.79,12.72-2.74,1.97-.44,3.97-.82,6-.75.95.03,1.89.17,2.8.47.12.04.5.25.62.23l.2.09v-.47c-.26,0-.75.39-1.04.45-1.97.44-4.19.36-6.2.51-2.24.18-4.48.35-6.73.53-4.48.35-8.97.7-13.45,1.05-9.37.73-19.08.99-28.03,4.13l.8,2.89c2.73-1.11,5.57-1.76,8.52-1.88,1.95-.08,1.9-2.83,0-3-3.47-.32-6.96-.36-10.44-.08-2.65.22-5.8.73-6.86,3.56s.75,5.11,3.56,5.22c3.52.14,7.16-.31,10.68-.47l-1.06-2.56c-2.33,2.02-5.06,3.57-7.99,4.53-1.46.48-2.97.83-4.49,1.01-.41.05-3.9.34-3.24-.59.55-.77,0-2.01-.9-2.2-3.54-.76-7.23-.06-10.15,2.12-.92.69-1.04,2.47.36,2.74,3.14.61,6.31.89,9.51.81v-3c-4.09.25-8.2.12-12.25-.46l-.4,2.95c2.65-.05,5.17-.74,7.48-2.04,1.08-.61.85-1.94,0-2.59-1.93-1.48-4.17-2.48-6.56-2.94-1.59-.31-2.73,1.88-1.16,2.74,1.96,1.07,4.13,1.57,6.36,1.35l-1.3-2.26c-.96,1.95-3.81,2.8-5.55,1.3l.39,1.46c.3-1.14.78-2.14,1.55-3.04l-2.51-1.46c-.3,2.17.73,4.03,2.84,4.75,1.83.63,2.61-2.27.8-2.89h0Z"/>
  <path d="M358.52,389.09c.59-1.59,3.45-2.07,4.83-2.53,2.34-.78,4.69-1.56,7.03-2.33,1.82-.6,1.08-3.4-.8-2.89-6.43,1.74-12.87,3.8-19.4,5.12-6.29,1.28-12.8.08-19.05,1.69-1.65.43-1.29,2.93.4,2.95,2.59.03,5.17.06,7.76.09,1.93.02,1.93-2.98,0-3-2.59-.03-5.17-.06-7.76-.09l.4,2.95c6.21-1.6,12.76-.42,19.05-1.69,6.53-1.32,12.97-3.38,19.4-5.12l-.8-2.89c-2.97.98-5.95,1.95-8.91,2.96-2.19.74-4.2,1.72-5.05,4.01-.67,1.81,2.23,2.59,2.89.8h0Z"/>
  <path d="M395.47,379.68l1.81.04-.76-2.8c-1.6.68-3.07,1.79-4.16,3.14-.26.32-.44.63-.44,1.06,0,.37.16.81.44,1.06s.66.46,1.06.44c.37-.02.82-.14,1.06-.44.49-.61,1.05-1.16,1.67-1.64l-.3.23c.67-.51,1.41-.94,2.19-1.27l.3-.23c.15-.14.25-.3.31-.48.13-.3.18-.66.08-.98-.21-.64-.76-1.09-1.45-1.1l-1.81-.04c-.78-.02-1.54.7-1.5,1.5s.66,1.48,1.5,1.5h0Z"/>
  <path d="M260.05,184.61c1.93,0,1.93-3,0-3s-1.93,3,0,3h0Z"/>
  <path d="M256.03,195.9c.32-.31.66-.61,1-.9.2-.17-.14.1.07-.06.08-.06.17-.13.26-.19.19-.14.39-.27.59-.4.38-.24.77-.47,1.16-.68.43-.22.7-.35,1.01-.47.39-.15.81-.34,1.23-.41h-.06c.18,0,.23,0,.13,0,.01.02-.19-.04-.16-.05-.05-.05-.04-.04.03.02.04.03.08.07.11.1.07.07.15.14.22.22.57.61,1.02,1.28,1.45,2.14.35.71,1.4.96,2.05.54.72-.47.91-1.3.54-2.05-.52-1.05-1.21-2.03-2.03-2.86-.49-.5-1.09-.92-1.8-1.01s-1.38.06-2.06.3c-2.2.77-4.2,2-5.87,3.62-.56.55-.59,1.58,0,2.12s1.52.58,2.12,0h0Z"/>
</svg>