<?xml version="1.0" encoding="UTF-8"?>
<svg id="Layer_1" xmlns="http://www.w3.org/2000/svg" version="1.1" viewBox="0 0 640 480">
  <!-- Generator: Adobe Illustrator 29.8.1, SVG Export Plug-In . SVG Version: 2.1.1 Build 2)  -->
  <path d="M203.42,313.17c-.28-4.11-.69-8.28-.11-12.38.29-2.04.83-4.09,1.81-5.91,1.15-2.16,2.91-3.45,4.89-4.82,7.75-5.38,16.85-8.38,26.15-9.65,5.25-.72,10.57-.89,15.87-.74,1.93.06,1.93-2.94,0-3-9.98-.29-20.15.63-29.64,3.88-4.71,1.61-9.26,3.78-13.38,6.58-2.02,1.37-4.22,2.8-5.61,4.83-1.28,1.86-2.13,4.03-2.63,6.23-1.13,4.93-.68,10-.34,14.99.13,1.92,3.13,1.93,3,0h0Z"/>
  <path d="M390.73,247.7c18.78-3.22,37.35-9.42,56.59-8.86,4.01.12,7.86.47,11.33,2.65,3.23,2.04,5.22,5.17,6.86,8.53,4.03,8.23,6.68,17.04,9.11,25.85,1.22,4.4,2.38,8.81,3.62,13.2s2.82,8.96,4.35,13.41c3.03,8.82,5.96,17.68,8.56,26.64,2.62,9.02,4.91,18.15,6.69,27.38,1.32,6.82,2.73,14.79-1.19,21.1-.74,1.19-1.71,2.28-2.88,3.06-1.5,1-3.15,1.39-4.85,1.91-4.63,1.43-9.28,2.77-13.96,4.03-9.21,2.47-18.5,4.63-27.84,6.53-18.47,3.77-37.11,6.59-55.76,9.27s-38.34,5.34-57.38,8.85c-9.44,1.74-18.89,3.47-28.38,4.95-4.69.73-9.38,1.4-14.09,1.98-4.7.57-9.38,1.02-14.04,1.82-9.47,1.62-18.99,3.25-28.62,3.5-4.7.13-9.43-.06-14.08-.79-1.16-.18-2.32-.4-3.46-.64s-2.57-.37-3.51-1.03c-1.46-1.03-2.78-2.4-4.01-3.69-10.11-10.68-13.05-25.96-14.86-40.03-.46-3.56-.85-7.13-1.26-10.69-.22-1.9-3.22-1.92-3,0,1.69,14.8,3,30.44,10.35,43.72,1.8,3.24,3.98,6.29,6.52,9,1.28,1.37,2.67,2.65,4.13,3.82.92.73,1.63,1.04,2.77,1.32,1.22.31,2.45.58,3.68.81,9.72,1.82,19.66,1.42,29.42.2,4.9-.61,9.77-1.41,14.64-2.23,2.39-.41,4.8-.91,7.21-1.17s4.95-.51,7.42-.81c9.62-1.16,19.18-2.68,28.72-4.36,9.89-1.74,19.74-3.77,29.67-5.32,9.89-1.55,19.79-2.98,29.7-4.39,19.24-2.74,38.49-5.42,57.6-8.95,9.63-1.78,19.23-3.77,28.75-6.07,4.82-1.17,9.62-2.41,14.39-3.74,2.37-.66,4.74-1.35,7.09-2.05,2.09-.63,4.29-1.13,6.3-1.96,6.49-2.67,8.85-9.7,9.13-16.21.18-4.24-.64-8.36-1.44-12.51-.91-4.73-1.95-9.43-3.11-14.1-2.31-9.35-5.08-18.59-8.06-27.75-2.99-9.18-6.38-18.22-8.97-27.52-2.51-9.01-4.75-18.11-7.92-26.92-1.59-4.41-3.41-8.76-5.59-12.92-1.69-3.23-4.32-6.12-7.49-7.94-3.73-2.15-7.81-2.57-12.04-2.71-4.8-.15-9.6.12-14.37.67-9.78,1.13-19.37,3.36-28.97,5.45-4.75,1.03-9.5,2.02-14.29,2.84-1.9.33-1.09,3.22.8,2.89h0l.02-.02Z"/>
  <path d="M240.94,282.19c20.5-7.94,42.04-12.7,63.58-16.85,6.24-1.2,12.5-2.36,18.75-3.53,1.9-.35,1.09-3.25-.8-2.89-21.76,4.06-43.63,7.96-64.85,14.38-5.9,1.79-11.73,3.77-17.48,6-1.78.69-1.01,3.59.8,2.89h0Z"/>
  <g>
    <path d="M327.63,280.31c.57.38,1.15.73,1.74,1.06.5-.15,1-.31,1.51-.45l-3.24-.6Z"/>
    <path d="M295.89,310.95c.21.32.44.67.79.85.42.21.92.13,1.39.05,9.38-1.76,18.76-3.52,28.14-5.27-4.89,11.46-7.59,23.61-10.02,35.86,2.49.6,4.39,1.8,5.77,3.39,6.4.36,12.78,1.02,19.2,1.17,5.66-17.49,9.81-35.45,12.37-53.65.14-1.02.27-2.11-.17-3.04-.58-1.22-1.97-1.82-3.25-2.25-6.89-2.32-14.44-3.15-20.72-6.68-14.43,4.27-28.52,9.71-42.07,16.29,2.86,4.43,5.73,8.86,8.59,13.29Z"/>
    <path d="M296.32,313.25c1.65.6,3.92-.31,5.54-.6,7.31-1.37,14.62-2.74,21.93-4.11-4.26,10.85-6.82,22.23-9.09,33.64.09,0,.18,0,.28.02.96.14,1.82.38,2.63.68.97-4.87,1.98-9.74,3.15-14.57,1.75-7.15,3.86-14.23,6.74-21.02.52-1.22-.37-2.44-1.71-2.18-7.44,1.4-14.88,2.79-22.32,4.19-1.77.33-3.55.7-5.34,1-.57.09-.6.18-.95-.1-.28-.22-.62-.94-.8-1.24l-1.61-2.49c-1.76-2.72-3.52-5.45-5.28-8.17,12.83-6.12,26.13-11.23,39.75-15.31,2.95,1.55,6.15,2.62,9.37,3.49,2.08.57,4.19,1.06,6.27,1.61,1.94.51,4.09.94,5.89,1.83.74.37,1.31.82,1.38,1.7.1,1.05-.2,2.19-.35,3.23-.31,2.11-.65,4.22-.99,6.32-.73,4.37-1.55,8.7-2.46,13.03-1.83,8.65-4,17.23-6.54,25.69-.72,2.39-1.47,4.74-2.25,7.07,1.01.04,2.02.07,3.04.08.04,0,.07,0,.11,0,.61-1.83,1.2-3.67,1.76-5.52,2.59-8.54,4.88-17.49,6.76-26.37.93-4.4,1.76-8.82,2.51-13.26.38-2.26.74-4.52,1.06-6.78.27-1.87.78-3.97-.22-5.72-1.06-1.87-3.26-2.54-5.19-3.15-2.35-.73-4.75-1.33-7.14-1.92-3.39-.86-6.76-1.77-9.93-3.18.09-.95-.66-2-1.84-1.66h0c-.29.1-.58.19-.87.28-.41-.24-.82-.48-1.22-.74-1.26-.83-2.43.59-2.11,1.75-13.62,4.19-26.9,9.42-39.72,15.63-.71.35-.96,1.41-.54,2.05,2.28,3.53,4.56,7.05,6.85,10.59.89,1.37,1.81,3.64,3.46,4.24Z"/>
  </g>
  <path d="M222.66,111.17c-11.92-12.96-22.07-27.51-30.19-43.13-2.32-4.47-4.47-9.02-6.46-13.64-.46-1.06-2.09-.9-2.59,0-6.8,12.1-9.15,25.93-10.79,39.54-1.73,14.4-4.04,29.56-.41,43.85,1.78,6.99,5.02,13.67,10.13,18.83,1.36,1.37,3.48-.75,2.12-2.12-9.36-9.45-11.46-23.48-11.08-36.23.22-7.26,1.1-14.5,1.93-21.72.76-6.63,1.64-13.26,3.08-19.78,1.61-7.26,3.95-14.36,7.6-20.86h-2.59c7.06,16.41,16.25,31.85,27.31,45.88,3.12,3.96,6.4,7.79,9.81,11.5,1.31,1.42,3.43-.7,2.12-2.12h.01Z"/>
  <path d="M304.31,108.25c11.17-12.36,21.02-25.91,29.33-40.35,2.37-4.12,4.61-8.32,6.73-12.58h-2.59c7.78,12.15,11.56,26.24,14.07,40.32,1.3,7.3,2.31,14.65,3.27,22.01,1.03,7.9,1.88,16.09.36,23.98-1.37,7.09-4.66,14.26-10.74,18.49-1.57,1.1-.08,3.7,1.51,2.59,12.81-8.92,13.95-26.07,12.45-40.21-.84-7.89-1.99-15.77-3.27-23.6s-2.72-14.96-4.9-22.24c-2.4-8.01-5.65-15.79-10.17-22.84-.57-.89-2.06-1.06-2.59,0-7.36,14.79-16.25,28.84-26.58,41.75-2.89,3.62-5.9,7.14-9.01,10.57-1.29,1.43.82,3.56,2.12,2.12h0Z"/>
  <path d="M296.6,105.46c-13.73-2.04-27.8-.62-40.81,4.24-1.65.61-1.28,2.73.4,2.95,6.65.84,13,3.28,18.62,6.91l1.16-2.74c-8.86-2.25-17.84-3.96-26.91-5.13s-18.04-2.08-27.01-1.72c-4.79.19-9.49,1-13.9,2.93-1.05.46-.9,2.09,0,2.59,13.04,7.29,27.54,11.77,42.43,13.01,4.26.36,8.53.43,12.79.25,1.92-.08,1.93-3.08,0-3-18.71.8-37.38-3.72-53.71-12.86v2.59c7.64-3.34,16.42-2.73,24.54-2.22,8.84.55,17.65,1.63,26.36,3.24,4.9.91,9.77,1.98,14.61,3.21,1.67.42,2.58-1.82,1.16-2.74-6.09-3.94-12.94-6.41-20.13-7.32l.4,2.95c12.48-4.66,26.02-6.2,39.22-4.24,1.89.28,2.7-2.61.8-2.89h-.02Z"/>
  <path d="M184.69,160.36c-13.32,5.26-25.69,12.67-36.63,21.92-3.17,2.68-6.21,5.52-9.12,8.48-.92.93-.24,2.54,1.06,2.56,15.25.21,30.5.42,45.74.63l-.4-2.95c-13.46,3.45-24.99,12.73-31.77,24.8-.61,1.08.19,2.12,1.3,2.26,29.73,3.66,58.95,11.37,86.67,22.73,7.84,3.21,15.54,6.73,23.12,10.52,1.72.86,3.24-1.73,1.51-2.59-27.23-13.61-56.23-23.65-86.09-29.61-8.35-1.67-16.77-3.01-25.22-4.05l1.3,2.26c6.41-11.42,17.24-20.15,29.98-23.42,1.65-.42,1.28-2.92-.4-2.95-15.25-.21-30.5-.42-45.74-.63l1.06,2.56c12.57-12.81,27.72-23.04,44.43-29.63,1.78-.7,1-3.6-.8-2.89h0Z"/>
  <path d="M339.12,162.23c13.56,4.05,27.02,8.43,40.36,13.14v-2.89c-14.68,4.65-28.78,11.04-41.96,18.99-1.34.81-.68,2.68.76,2.8,13.45,1.08,26.89,2.16,40.34,3.24l-.76-2.8c-27.88,12.88-56.14,24.94-84.74,36.13-8,3.13-16.03,6.19-24.08,9.19-1.79.67-1.02,3.57.8,2.89,28.85-10.74,57.39-22.35,85.55-34.79,8.02-3.54,16.02-7.16,23.98-10.84,1.47-.68.57-2.69-.76-2.8-13.45-1.08-26.89-2.16-40.34-3.24l.76,2.8c12.97-7.82,26.8-14.12,41.24-18.69,1.46-.46,1.39-2.4,0-2.89-13.34-4.71-26.8-9.1-40.36-13.14-1.85-.55-2.65,2.34-.8,2.89h0Z"/>
  <path d="M205.81,150.08c15.63.57,31.28.7,46.91.38,1.93-.04,1.93-3.04,0-3-15.64.32-31.28.19-46.91-.38-1.93-.07-1.93,2.93,0,3h0Z"/>
  <path d="M203.71,147.15c-1.57,2.51-2.83,5.22-3.73,8.04s-1.73,5.88-1.46,8.74c.27,2.86,2.3,4.78,4.43,6.47,2.36,1.88,4.94,3.34,7.75,4.44,1.8.71,2.58-2.19.8-2.89-2.29-.9-4.48-2.14-6.42-3.67s-3.7-3.01-3.57-5.63c.24-4.89,2.24-9.88,4.81-13.98,1.03-1.64-1.57-3.15-2.59-1.51h-.02Z"/>
  <path d="M231.63,149.53c-3.3,2.95-4.48,7.46-5.43,11.62-.51,2.22-.88,4.63.09,6.78s3.03,3.2,5.03,4.13c4.09,1.9,9.1,3.66,13.68,3.29,2.09-.17,4.17-.88,5.59-2.49s1.96-3.56,2.18-5.62c.27-2.58-.1-5.2-.31-7.77-.27-3.21-.53-6.42-.8-9.63-.16-1.91-3.16-1.93-3,0,.38,4.57.84,9.14,1.12,13.72.19,3.07.21,7.35-3.34,8.51-1.64.53-3.47.35-5.14.06-2.08-.37-4.12-.93-6.1-1.66-1.77-.65-3.84-1.4-5.3-2.63s-1.34-3.35-.98-5.12c.78-3.87,1.76-8.32,4.83-11.06,1.44-1.29-.68-3.4-2.12-2.12h0Z"/>
  <path d="M235.79,154.36l2.77.03c.46,0,.93,0,1.39.01.17,0,.34,0,.51.01.25.05.23-.09-.06-.41.1.01-1.09,1.13-1.18,1.19-.68.43-1.37.85-2.07,1.25-2.92,1.71-5.96,3.23-9.1,4.51-1.49.61-1.41,2.9.4,2.95,6.71.15,13.35-1.62,19.13-5.02l-1.82-2.36c-2.2,2.51-4.68,4.74-7.45,6.61-.96.65-1.01,2.5.36,2.74,2.48.43,4.96.87,7.45,1.3l-1.05-1.05c.16.82-.94,1.36-1.6,1.35-1.19-.02-2.31-.91-3.22-1.57-1.83-1.34-3.62-2.82-5.07-4.58-1.3-1.59-2.39-3.63-2.34-5.74.03-1.35.68-3.67,2.32-3.86l-1.45-1.9c-.31,1.74-.87,3.39-1.76,4.91s-2.43,2.68-3.09,4.3c-.79,1.96.36,3.49,1.59,4.91,1.41,1.62,2.82,3.24,4.23,4.86l.66-2.51c-1.55.21-2.93-.86-3.6-2.16l-1.3,2.26c3.14-.37,6.3-.49,9.45-.31,1.49.09,2.99.38,4.48.43s2.63-.67,3.11-2.06c.44-1.26.5-2.76.56-4.09.06-1.4,0-2.79-.19-4.18-.37-2.87-1.21-5.6-2.5-8.19-.86-1.73-3.45-.21-2.59,1.51,2.03,4.07,2.91,9.07,1.98,13.56-.1.51.02.48-.52.44-.6-.04-1.19-.15-1.79-.21-1.31-.14-2.62-.23-3.94-.27-2.7-.08-5.39.05-8.07.37-1.14.14-1.86,1.17-1.3,2.26,1.35,2.62,4.12,3.93,6.99,3.53,1.21-.17,1.31-1.76.66-2.51-1.2-1.37-2.39-2.75-3.59-4.12-.46-.53-1.35-1.22-1.56-1.91-.2-.65.41-1.15.81-1.6,2.13-2.39,3.57-5.26,4.14-8.42.15-.85-.39-2.02-1.45-1.9-2.41.28-4.02,1.91-4.83,4.14-.86,2.34-.49,4.86.5,7.09,1.05,2.39,2.87,4.39,4.82,6.09s4.22,3.8,6.78,4.3c3.07.6,6.14-1.77,5.53-5.02-.09-.47-.58-.97-1.05-1.05-2.48-.43-4.96-.87-7.45-1.3l.36,2.74c2.98-2.02,5.68-4.38,8.05-7.08,1.09-1.24-.29-3.26-1.82-2.36-5.35,3.14-11.41,4.75-17.62,4.61l.4,2.95c2.17-.89,4.31-1.86,6.4-2.94s4.29-2.19,6.17-3.6c1.46-1.09,2.84-3.34,1.3-4.97-.8-.84-1.86-.93-2.96-.94-1.32-.02-2.64-.03-3.96-.04-1.93-.02-1.93,2.98,0,3h0l.05.02Z"/>
  <path d="M267.23,149.31c12.51.29,25.03-1.03,37.22-3.89,1.88-.44,1.08-3.33-.8-2.89-11.94,2.8-24.16,4.06-36.42,3.78-1.93-.04-1.93,2.96,0,3h0Z"/>
  <path d="M265.57,149.64c-2.94,3.41-3.51,8.81-3.14,13.15.39,4.61,2.85,8.18,6.96,10.27,1.81.92,3.75,1.57,5.71,2.12,2.12.59,4.44,1.06,6.62.49,2.33-.61,3.74-2.4,4.84-4.43,1.17-2.16,2.3-4.36,3.14-6.68,1.69-4.68,1.71-10.52-2.1-14.19-1.39-1.34-3.51.78-2.12,2.12,2.63,2.53,2.72,6.5,1.8,9.82-.54,1.93-1.39,3.73-2.3,5.51-.8,1.56-1.59,3.77-3.21,4.65-1.49.8-3.37.45-4.93.07s-3.26-.89-4.8-1.54c-3.22-1.35-5.77-3.55-6.45-7.11-.4-2.09-.22-4.32.04-6.41s.72-4.14,2.07-5.7c1.25-1.46-.86-3.59-2.12-2.12h0v-.02Z"/>
  <path d="M304.25,146.45c7.64,5.21,8.73,16.49,2.63,23.3-1.28,1.44.83,3.56,2.12,2.12,7.44-8.32,6.04-21.68-3.24-28.02-1.6-1.09-3.1,1.51-1.51,2.59h0Z"/>
  <path d="M269.66,155.01l7.49-.58-1.06-2.56c-1.06,1.1-2.32,1.62-3.85,1.54l.4,2.95c5.75-.91,11.5-1.83,17.26-2.74l-1.9-1.45s-3.09.81-3.41.9c-1.27.35-2.55.7-3.79,1.14-2.47.87-4.77,2.1-6.57,4.03l2.56,1.06c.06-3.66,3.08-6.33,5.65-8.55.8-.69.43-2.33-.66-2.51-3.37-.53-6.73-.54-10.09.06-1.68.3-3.34.75-4.94,1.35-1.34.5-3.08,1.01-3.92,2.27-.78,1.17-.54,2.75.37,3.77,1.13,1.27,2.78,1.37,4.36,1.46,3.68.2,7.36.38,11.04.57l-.76-2.8c-3.23,2.2-6.71,3.91-10.44,5.08l1.85,1.05c-.04-.23-.05-.46-.03-.7-.92-.51-1.28-.41-1.08.32-.12.4.05,1.07.07,1.48.06,1.15.11,2.3.17,3.44.07,1.43,2.04,2.12,2.8.76.54-.97,1.07-1.94,1.61-2.92.08-.14.72-1.1.69-1.25-.93-.36-1.29-.29-1.07.23.02.24.03.47.04.71.12,2.12.13,4.25.06,6.37-.05,1.65,2.68,2.09,2.95.4.31-1.96,1.05-3.73,2.39-5.22l-2.51-.66c.56,1.82.77,3.69.51,5.58l2.95.4c.11-4.2,1.51-8.34,4.13-11.65l-2.51-.66c.72,3.73.42,7.51-.78,11.1h2.89c-.42-2.07.14-4.25,1.57-5.82l-2.51-.66c.27.72.29,1.31-.11,1.99h2.59c-1.15-1.58.2-3.9,2.07-2.59l.36-2.74c-5.05,1.2-10,2.78-14.81,4.75-1.75.72-4.32,1.45-4.25,3.81.06,2.04,2.04,3.33,3.73,4.02,1.79.72,2.57-2.18.8-2.89-.44-.18-1.3-.59-1.46-1.08-.08-.24-.2-.02.27-.23.34-.15.68-.3,1.02-.44,1.68-.71,3.39-1.37,5.11-1.98,3.41-1.21,6.88-2.22,10.39-3.06,1.35-.32,1.35-2.05.36-2.74-1.78-1.25-4.37-1.01-5.86.61s-1.61,4.31-.32,6.09c.64.89,1.98,1.04,2.59,0,.78-1.32.96-2.86.41-4.3-.37-.99-1.69-1.57-2.51-.66-2.18,2.4-2.98,5.58-2.34,8.74.32,1.54,2.46,1.31,2.89,0,1.37-4.11,1.6-8.45.78-12.7-.2-1.04-1.82-1.53-2.51-.66-3.14,3.96-4.88,8.71-5.01,13.77-.04,1.65,2.71,2.1,2.95.4.34-2.44.22-4.81-.51-7.18-.32-1.03-1.72-1.53-2.51-.66-1.67,1.85-2.78,4.07-3.16,6.54l2.95.4c.06-1.73.06-3.46,0-5.19-.05-1.41.04-3.15-1-4.26-2.73-2.9-4.97,3.07-5.92,4.8l2.8.76c-.07-1.56-.15-3.12-.22-4.68-.06-1.16-.08-2.46-1.23-3.11-.92-.52-2.17-.24-2.9.49-.95.95-.86,2.33-.67,3.55.12.78,1.14,1.27,1.85,1.05,3.97-1.25,7.72-3.05,11.16-5.39,1.24-.84.77-2.72-.76-2.8-2.64-.14-5.28-.27-7.92-.41-1.27-.07-2.53-.11-3.8-.2-.34-.02-1.28-.02-1.44-.42-.14-.36.7-.58,1-.71,4.52-1.98,9.66-2.61,14.53-1.84l-.66-2.51c-3.23,2.8-6.45,6.13-6.53,10.67-.02,1.27,1.67,2.02,2.56,1.06,2.08-2.24,4.89-3.23,7.76-4.05,2.32-.66,6.78-1,6.89-4.14.04-1.06-.98-1.59-1.9-1.45-5.75.91-11.5,1.83-17.26,2.74-1.74.28-1.21,2.87.4,2.95,2.27.11,4.4-.79,5.97-2.42.84-.87.29-2.66-1.06-2.56l-7.49.58c-1.91.15-1.93,3.15,0,3h0Z"/>
  <path d="M234.04,239.27c-5.4,13.2-5.66,27.71-4.89,41.75.11,1.92,3.11,1.93,3,0-.76-13.81-.52-27.97,4.79-40.96.73-1.79-2.17-2.56-2.89-.8h0Z"/>
  <path d="M293.47,237.05c.36,10.14.8,20.28,1.33,30.41.1,1.92,3.1,1.93,3,0-.53-10.13-.97-20.27-1.33-30.41-.07-1.93-3.07-1.93-3,0h0Z"/>
  <path d="M389.03,245.92c-4.09-5.2-9.88-8.58-15.95-11.01-6.7-2.67-13.93-4.58-21.11-5.29s-14.3.12-20.69,3.28c-6,2.97-10.84,8.19-12.81,14.64s-.54,12.61,3.15,17.79c3.88,5.45,9.55,9.02,15.72,11.4,6.97,2.69,14.62,4.39,22.03,5.26s14.4.32,20.83-2.89c11.79-5.89,16.61-21.32,10.64-32.99-.88-1.72-3.47-.2-2.59,1.51,4.56,8.92,1.77,21.11-6.41,27-5.24,3.78-11.86,4.94-18.2,4.71-6.93-.25-13.93-1.89-20.56-3.83-5.99-1.76-11.94-4.3-16.41-8.79-3.93-3.96-6.54-9.26-6.01-14.94.55-5.96,4.33-11.37,9.24-14.62,5.38-3.55,11.89-4.89,18.26-4.76,7.56.15,15.17,2.13,22.25,4.7,6.29,2.29,12.29,5.61,16.48,10.94,1.19,1.52,3.3-.62,2.12-2.12h.02Z"/>
  <path d="M193.5,317.76c6.01-1.61,12.25-2.09,18.44-1.43,5.14.55,11.19,1.73,15.14,5.34,2.05,1.88,3.15,4.3,3.88,6.94.8,2.86,1.42,5.81,1.87,8.74.87,5.57.77,11.65-2.13,16.65-1.48,2.54-3.68,4.43-6,6.18s-4.63,3.6-7.41,4.42-6.03.68-9.03.68c-3.33-.01-6.66-.02-9.99-.03-3.13-.01-6.44.29-9.54-.19-2.38-.36-4.3-1.64-5.61-3.64-2.75-4.19-3.42-9.9-3.92-14.76-.66-6.43-.19-13.32,3.63-18.78,3.57-5.11,9.71-7.46,15.35-9.47,1.81-.64,1.03-3.54-.8-2.89-5.64,2.01-11.59,4.31-15.64,8.92s-5.75,11.02-5.8,17.17c-.03,3.59.45,7.17,1.06,10.7.47,2.7,1.05,5.38,2.12,7.91.97,2.28,2.33,4.39,4.35,5.88,2.45,1.81,5.41,2.09,8.37,2.12,3.64.03,7.29.02,10.93.04s7.35.19,11-.06c3.25-.23,6.19-1.12,8.93-2.9s5.31-3.67,7.55-5.88c4.45-4.4,6.16-10.68,6.06-16.81-.06-3.54-.67-7.06-1.42-10.51-.66-3.04-1.32-6.18-2.82-8.93-3.25-5.94-10.23-8.26-16.51-9.34-7.6-1.31-15.39-.96-22.85,1.03-1.86.5-1.07,3.39.8,2.89h0Z"/>
  <path d="M260.05,184.61c1.93,0,1.93-3,0-3s-1.93,3,0,3h0Z"/>
  <path d="M229.75,201.43c17.78-.11,35.55-.22,53.33-.34,1.93-.01,1.93-3.01,0-3-17.78.11-35.55.22-53.33.34-1.93.01-1.93,3.01,0,3h0Z"/>
  <g>
    <path d="M350.47,394.04c.37-.57.78-1.11,1.19-1.64.52-.06,1.04-.1,1.57-.16l-2.76,1.81Z"/>
    <path d="M309.35,378.06c.07-.38.14-.79.4-1.08.3-.36.8-.48,1.26-.58,9.33-2.01,18.66-4.01,27.99-6.02-8.94-8.67-16.13-18.84-23.11-29.2,2.07-1.51,3.35-3.35,4.01-5.36,5.76-2.8,11.4-5.88,17.25-8.5,11.98,13.94,22.75,28.91,32.15,44.7.53.89,1.07,1.84,1.02,2.87-.06,1.36-1.11,2.44-2.13,3.33-5.46,4.8-12.09,8.49-16.53,14.17-14.96,1.64-30.06,2.07-45.1,1.24.93-5.19,1.86-10.38,2.79-15.57Z"/>
    <path d="M308.86,375.77c1.29-1.19,3.73-1.23,5.35-1.58,7.27-1.56,14.55-3.12,21.82-4.68-8.13-8.36-14.88-17.86-21.39-27.51.08-.04.16-.08.25-.13.83-.5,1.54-1.05,2.16-1.64,2.78,4.12,5.59,8.22,8.54,12.22,4.38,5.92,9.06,11.63,14.34,16.78.95.93.6,2.39-.73,2.67-7.4,1.59-14.8,3.18-22.2,4.77-1.76.38-3.54.73-5.31,1.15-.56.13-.62.06-.84.46-.17.31-.2,1.11-.26,1.46l-.52,2.92c-.57,3.19-1.14,6.38-1.72,9.58,14.2.68,28.44.26,42.58-1.25,2.12-2.58,4.66-4.79,7.29-6.84,1.7-1.33,3.45-2.6,5.16-3.91,1.59-1.22,3.41-2.45,4.72-3.97.54-.63.89-1.26.62-2.1-.32-1.01-1.04-1.94-1.58-2.84-1.1-1.83-2.23-3.64-3.36-5.44-2.36-3.74-4.79-7.43-7.31-11.07-5.03-7.27-10.35-14.34-15.96-21.17-1.58-1.93-3.19-3.8-4.81-5.65.92-.42,1.84-.84,2.77-1.24.03-.01.06-.03.1-.05,1.27,1.45,2.53,2.92,3.76,4.41,5.69,6.87,11.26,14.24,16.43,21.71,2.56,3.7,5.04,7.46,7.44,11.26,1.22,1.93,2.43,3.89,3.6,5.85.97,1.62,2.25,3.36,2.01,5.36-.25,2.13-2.03,3.6-3.57,4.91-1.89,1.58-3.87,3.06-5.84,4.53-2.79,2.1-5.55,4.24-7.93,6.77.45.84.17,2.1-1.06,2.24h0c-.3.02-.6.05-.9.08-.29.38-.57.76-.84,1.16-.84,1.25-2.47.4-2.62-.8-14.18,1.4-28.45,1.72-42.68.95-.79-.04-1.43-.93-1.29-1.68.74-4.13,1.48-8.27,2.22-12.42.29-1.61.27-4.06,1.56-5.25Z"/>
  </g>
  <path d="M317.29,335.28l-7.37,10.78c-.72,1.05.28,2.13,1.3,2.26,6.52.84,12.87,2.9,18.67,5.98,1.71.91,3.16-1.57,1.51-2.59-5.55-3.45-11.48-6.24-17.67-8.34l.36,2.74c1.41-.97,2.88-1.6,4.55-1.95l-1.46-2.51c-.65.77-1.55,1.52-1.52,2.6.02.69.46,1.23,1.1,1.45.46.15.98.1,1.38-.19.52-.37.91-1.03.69-1.69l-.03-.09c-.6-1.82-3.5-1.04-2.89.8l.03.09.69-1.69-.11.07,1.16-.15-.12-.04,1.1,1.45v-.21c-.07.25-.14.5-.21.76.24-.37.57-.7.86-1.03.97-1.15.05-2.83-1.46-2.51-1.89.4-3.68,1.16-5.27,2.26-1.08.74-.9,2.31.36,2.74,5.95,2.02,11.62,4.72,16.95,8.03l1.51-2.59c-6.3-3.35-13.11-5.48-20.18-6.39l1.3,2.26,7.37-10.78c1.09-1.6-1.51-3.1-2.59-1.51h0Z"/>
  <path d="M313.62,341.23c-2.04,1.73-4.65,2.56-7.12,3.45s-5.05,1.96-7.19,3.7c-1.18.96.09,2.94,1.46,2.51,7.09-2.25,14.5-3.07,21.92-2.44,1.73.15,1.97-2.48.4-2.95-3.44-1.03-7.01-1.63-10.6-1.16-3.36.44-6.79,1.82-10.21,1.31l.36,2.74c3.35-2.44,7.74-2.81,10.99-5.45,1.63-1.33,2.9-3.13,4.4-4.6,1.69-1.64,2.9-3.64,2.4-6.07-.24-1.17-1.72-1.36-2.51-.66-2.9,2.57-3.08,6.88-6.34,9.14-3.64,2.52-7.66,4.99-11.99,6.06l1.85,1.85c.72-1.97,4.04-1.82,5.7-2.09,2.5-.4,4.92-1.11,7.26-2.07.75-.31,1.27-.99,1.05-1.85-.19-.71-1.1-1.36-1.85-1.05-2.86,1.18-5.8,1.88-8.86,2.28-2.66.35-5.21,1.25-6.2,3.97-.41,1.12.81,2.1,1.85,1.85,4.58-1.14,8.85-3.7,12.71-6.37,1.74-1.2,3.02-2.65,3.95-4.55.86-1.77,1.48-3.72,3-5.06l-2.51-.66c.39,1.89-1.96,3.38-3.06,4.55-1.23,1.3-2.2,2.78-3.76,3.73-3.03,1.84-6.68,2.34-9.58,4.45-.9.66-1.06,2.53.36,2.74,3.5.53,6.78-.42,10.2-1.05,3.61-.67,7.12-.13,10.61.91l.4-2.95c-7.65-.65-15.39.23-22.71,2.55l1.46,2.51c2.07-1.69,4.69-2.5,7.17-3.4s5.04-1.98,7.14-3.75c1.48-1.25-.65-3.36-2.12-2.12h0Z"/>
</svg>