<?xml version="1.0" encoding="UTF-8"?>
<svg id="Layer_1" xmlns="http://www.w3.org/2000/svg" version="1.1" viewBox="0 0 640 480">
  <!-- Generator: Adobe Illustrator 29.8.1, SVG Export Plug-In . SVG Version: 2.1.1 Build 2)  -->
  <path d="M203.42,313.17c-.28-4.11-.69-8.28-.11-12.38.29-2.04.83-4.09,1.81-5.91,1.15-2.16,2.91-3.45,4.89-4.82,7.75-5.38,16.85-8.38,26.15-9.65,5.25-.72,10.57-.89,15.87-.74,1.93.06,1.93-2.94,0-3-9.98-.29-20.15.63-29.64,3.88-4.71,1.61-9.26,3.78-13.38,6.58-2.02,1.37-4.22,2.8-5.61,4.83-1.28,1.86-2.13,4.03-2.63,6.23-1.13,4.93-.68,10-.34,14.99.13,1.92,3.13,1.93,3,0h0Z"/>
  <path d="M390.73,247.7c18.78-3.22,37.35-9.42,56.59-8.86,4.01.12,7.86.47,11.33,2.65,3.23,2.04,5.22,5.17,6.86,8.53,4.03,8.23,6.68,17.04,9.11,25.85,1.22,4.4,2.38,8.81,3.62,13.2s2.82,8.96,4.35,13.41c3.03,8.82,5.96,17.68,8.56,26.64,2.62,9.02,4.91,18.15,6.69,27.38,1.32,6.82,2.73,14.79-1.19,21.1-.74,1.19-1.71,2.28-2.88,3.06-1.5,1-3.15,1.39-4.85,1.91-4.63,1.43-9.28,2.77-13.96,4.03-9.21,2.47-18.5,4.63-27.84,6.53-18.47,3.77-37.11,6.59-55.76,9.27s-38.34,5.34-57.38,8.85c-9.44,1.74-18.89,3.47-28.38,4.95-4.69.73-9.38,1.4-14.09,1.98-4.7.57-9.38,1.02-14.04,1.82-9.47,1.62-18.99,3.25-28.62,3.5-4.7.13-9.43-.06-14.08-.79-1.16-.18-2.32-.4-3.46-.64s-2.57-.37-3.51-1.03c-1.46-1.03-2.78-2.4-4.01-3.69-10.11-10.68-13.05-25.96-14.86-40.03-.46-3.56-.85-7.13-1.26-10.69-.22-1.9-3.22-1.92-3,0,1.69,14.8,3,30.44,10.35,43.72,1.8,3.24,3.98,6.29,6.52,9,1.28,1.37,2.67,2.65,4.13,3.82.92.73,1.63,1.04,2.77,1.32,1.22.31,2.45.58,3.68.81,9.72,1.82,19.66,1.42,29.42.2,4.9-.61,9.77-1.41,14.64-2.23,2.39-.41,4.8-.91,7.21-1.17s4.95-.51,7.42-.81c9.62-1.16,19.18-2.68,28.72-4.36,9.89-1.74,19.74-3.77,29.67-5.32,9.89-1.55,19.79-2.98,29.7-4.39,19.24-2.74,38.49-5.42,57.6-8.95,9.63-1.78,19.23-3.77,28.75-6.07,4.82-1.17,9.62-2.41,14.39-3.74,2.37-.66,4.74-1.35,7.09-2.05,2.09-.63,4.29-1.13,6.3-1.96,6.49-2.67,8.85-9.7,9.13-16.21.18-4.24-.64-8.36-1.44-12.51-.91-4.73-1.95-9.43-3.11-14.1-2.31-9.35-5.08-18.59-8.06-27.75-2.99-9.18-6.38-18.22-8.97-27.52-2.51-9.01-4.75-18.11-7.92-26.92-1.59-4.41-3.41-8.76-5.59-12.92-1.69-3.23-4.32-6.12-7.49-7.94-3.73-2.15-7.81-2.57-12.04-2.71-4.8-.15-9.6.12-14.37.67-9.78,1.13-19.37,3.36-28.97,5.45-4.75,1.03-9.5,2.02-14.29,2.84-1.9.33-1.09,3.22.8,2.89h0l.02-.02Z"/>
  <path d="M240.94,282.19c20.5-7.94,42.04-12.7,63.58-16.85,6.24-1.2,12.5-2.36,18.75-3.53,1.9-.35,1.09-3.25-.8-2.89-21.76,4.06-43.63,7.96-64.85,14.38-5.9,1.79-11.73,3.77-17.48,6-1.78.69-1.01,3.59.8,2.89h0Z"/>
  <g>
    <path d="M312.44,356.24c-.61-.41-1.23-.79-1.86-1.15-.56.12-1.12.25-1.69.37l3.55.78Z"/>
    <path d="M349.09,327.44c-.21-.34-.45-.69-.83-.89-.45-.24-1.02-.18-1.53-.13-10.46,1.22-20.91,2.45-31.38,3.68,5.99-11.17,9.59-23.15,12.91-35.25-2.72-.74-4.76-2.04-6.21-3.71-7.06-.72-14.08-1.74-21.16-2.25-7.15,17.14-12.65,34.85-16.41,52.88-.21,1.01-.41,2.09.03,3.04.58,1.26,2.08,1.93,3.48,2.43,7.5,2.71,15.8,3.97,22.57,7.84,16.17-3.45,32.02-8.09,47.34-13.9-2.94-4.58-5.88-9.17-8.82-13.75Z"/>
    <path d="M348.73,325.12c-1.79-.69-4.34.08-6.16.29-8.15.96-16.3,1.91-24.45,2.87,5.27-10.6,8.67-21.81,11.77-33.08-.1-.01-.2-.02-.3-.04-1.05-.2-2-.48-2.87-.82-1.32,4.81-2.68,9.61-4.23,14.37-2.3,7.04-4.99,13.99-8.52,20.61-.63,1.19.29,2.45,1.78,2.27,8.29-.98,16.59-1.94,24.88-2.92,1.98-.23,3.96-.49,5.95-.69.63-.06.67-.15,1.05.16.29.24.63.98.82,1.29l1.66,2.58c1.81,2.82,3.62,5.64,5.42,8.46-14.5,5.39-29.45,9.74-44.72,13.04-3.19-1.72-6.66-2.96-10.18-4.02-2.27-.68-4.57-1.3-6.85-1.96-2.12-.62-4.47-1.17-6.42-2.16-.8-.41-1.4-.89-1.44-1.78-.05-1.06.34-2.18.56-3.21.45-2.09.93-4.18,1.42-6.25,1.03-4.32,2.15-8.6,3.38-12.88,2.46-8.53,5.3-16.98,8.54-25.29.91-2.35,1.87-4.65,2.85-6.93-1.12-.09-2.23-.18-3.35-.25-.04,0-.08-.01-.12-.01-.77,1.79-1.51,3.59-2.23,5.41-3.3,8.38-6.29,17.19-8.82,25.96-1.25,4.34-2.4,8.71-3.45,13.1-.53,2.23-1.04,4.47-1.52,6.72-.4,1.85-1.07,3.92-.05,5.73,1.07,1.93,3.48,2.72,5.58,3.44,2.57.86,5.18,1.59,7.79,2.32,3.7,1.05,7.38,2.14,10.81,3.74-.15.94.63,2.04,1.95,1.76h0c.33-.08.65-.16.97-.23.44.26.89.52,1.32.81,1.35.9,2.71-.45,2.42-1.63,15.26-3.42,30.22-7.89,44.71-13.36.8-.3,1.13-1.36.7-2.02-2.34-3.65-4.68-7.3-7.03-10.97-.91-1.42-1.82-3.74-3.61-4.43Z"/>
  </g>
  <path d="M222.66,111.17c-11.92-12.96-22.07-27.51-30.19-43.13-2.32-4.47-4.47-9.02-6.46-13.64-.46-1.06-2.09-.9-2.59,0-6.8,12.1-9.15,25.93-10.79,39.54-1.73,14.4-4.04,29.56-.41,43.85,1.78,6.99,5.02,13.67,10.13,18.83,1.36,1.37,3.48-.75,2.12-2.12-9.36-9.45-11.46-23.48-11.08-36.23.22-7.26,1.1-14.5,1.93-21.72.76-6.63,1.64-13.26,3.08-19.78,1.61-7.26,3.95-14.36,7.6-20.86h-2.59c7.06,16.41,16.25,31.85,27.31,45.88,3.12,3.96,6.4,7.79,9.81,11.5,1.31,1.42,3.43-.7,2.12-2.12h.01Z"/>
  <path d="M304.31,108.25c11.17-12.36,21.02-25.91,29.33-40.35,2.37-4.12,4.61-8.32,6.73-12.58h-2.59c7.78,12.15,11.56,26.24,14.07,40.32,1.3,7.3,2.31,14.65,3.27,22.01,1.03,7.9,1.88,16.09.36,23.98-1.37,7.09-4.66,14.26-10.74,18.49-1.57,1.1-.08,3.7,1.51,2.59,12.81-8.92,13.95-26.07,12.45-40.21-.84-7.89-1.99-15.77-3.27-23.6s-2.72-14.96-4.9-22.24c-2.4-8.01-5.65-15.79-10.17-22.84-.57-.89-2.06-1.06-2.59,0-7.36,14.79-16.25,28.84-26.58,41.75-2.89,3.62-5.9,7.14-9.01,10.57-1.29,1.43.82,3.56,2.12,2.12h0Z"/>
  <path d="M296.6,105.46c-13.73-2.04-27.8-.62-40.81,4.24-1.65.61-1.28,2.73.4,2.95,6.65.84,13,3.28,18.62,6.91l1.16-2.74c-8.86-2.25-17.84-3.96-26.91-5.13s-18.04-2.08-27.01-1.72c-4.79.19-9.49,1-13.9,2.93-1.05.46-.9,2.09,0,2.59,13.04,7.29,27.54,11.77,42.43,13.01,4.26.36,8.53.43,12.79.25,1.92-.08,1.93-3.08,0-3-18.71.8-37.38-3.72-53.71-12.86v2.59c7.64-3.34,16.42-2.73,24.54-2.22,8.84.55,17.65,1.63,26.36,3.24,4.9.91,9.77,1.98,14.61,3.21,1.67.42,2.58-1.82,1.16-2.74-6.09-3.94-12.94-6.41-20.13-7.32l.4,2.95c12.48-4.66,26.02-6.2,39.22-4.24,1.89.28,2.7-2.61.8-2.89h-.02Z"/>
  <path d="M184.69,160.36c-13.32,5.26-25.69,12.67-36.63,21.92-3.17,2.68-6.21,5.52-9.12,8.48-.92.93-.24,2.54,1.06,2.56,15.25.21,30.5.42,45.74.63l-.4-2.95c-13.46,3.45-24.99,12.73-31.77,24.8-.61,1.08.19,2.12,1.3,2.26,29.73,3.66,58.95,11.37,86.67,22.73,7.84,3.21,15.54,6.73,23.12,10.52,1.72.86,3.24-1.73,1.51-2.59-27.23-13.61-56.23-23.65-86.09-29.61-8.35-1.67-16.77-3.01-25.22-4.05l1.3,2.26c6.41-11.42,17.24-20.15,29.98-23.42,1.65-.42,1.28-2.92-.4-2.95-15.25-.21-30.5-.42-45.74-.63l1.06,2.56c12.57-12.81,27.72-23.04,44.43-29.63,1.78-.7,1-3.6-.8-2.89h0Z"/>
  <path d="M339.12,162.23c13.56,4.05,27.02,8.43,40.36,13.14v-2.89c-14.68,4.65-28.78,11.04-41.96,18.99-1.34.81-.68,2.68.76,2.8,13.45,1.08,26.89,2.16,40.34,3.24l-.76-2.8c-27.88,12.88-56.14,24.94-84.74,36.13-8,3.13-16.03,6.19-24.08,9.19-1.79.67-1.02,3.57.8,2.89,28.85-10.74,57.39-22.35,85.55-34.79,8.02-3.54,16.02-7.16,23.98-10.84,1.47-.68.57-2.69-.76-2.8-13.45-1.08-26.89-2.16-40.34-3.24l.76,2.8c12.97-7.82,26.8-14.12,41.24-18.69,1.46-.46,1.39-2.4,0-2.89-13.34-4.71-26.8-9.1-40.36-13.14-1.85-.55-2.65,2.34-.8,2.89h0Z"/>
  <path d="M205.81,150.08c15.63.57,31.28.7,46.91.38,1.93-.04,1.93-3.04,0-3-15.64.32-31.28.19-46.91-.38-1.93-.07-1.93,2.93,0,3h0Z"/>
  <path d="M203.71,147.15c-1.57,2.51-2.83,5.22-3.73,8.04s-1.73,5.88-1.46,8.74c.27,2.86,2.3,4.78,4.43,6.47,2.36,1.88,4.94,3.34,7.75,4.44,1.8.71,2.58-2.19.8-2.89-2.29-.9-4.48-2.14-6.42-3.67s-3.7-3.01-3.57-5.63c.24-4.89,2.24-9.88,4.81-13.98,1.03-1.64-1.57-3.15-2.59-1.51h-.02Z"/>
  <path d="M267.23,149.31c12.51.29,25.03-1.03,37.22-3.89,1.88-.44,1.08-3.33-.8-2.89-11.94,2.8-24.16,4.06-36.42,3.78-1.93-.04-1.93,2.96,0,3h0Z"/>
  <path d="M304.25,146.45c7.64,5.21,8.73,16.49,2.63,23.3-1.28,1.44.83,3.56,2.12,2.12,7.44-8.32,6.04-21.68-3.24-28.02-1.6-1.09-3.1,1.51-1.51,2.59h0Z"/>
  <path d="M234.04,239.27c-5.4,13.2-5.66,27.71-4.89,41.75.11,1.92,3.11,1.93,3,0-.76-13.81-.52-27.97,4.79-40.96.73-1.79-2.17-2.56-2.89-.8h0Z"/>
  <path d="M293.47,237.05c.36,10.14.8,20.28,1.33,30.41.1,1.92,3.1,1.93,3,0-.53-10.13-.97-20.27-1.33-30.41-.07-1.93-3.07-1.93-3,0h0Z"/>
  <path d="M389.03,245.92c-4.09-5.2-9.88-8.58-15.95-11.01-6.7-2.67-13.93-4.58-21.11-5.29s-14.3.12-20.69,3.28c-6,2.97-10.84,8.19-12.81,14.64s-.54,12.61,3.15,17.79c3.88,5.45,9.55,9.02,15.72,11.4,6.97,2.69,14.62,4.39,22.03,5.26s14.4.32,20.83-2.89c11.79-5.89,16.61-21.32,10.64-32.99-.88-1.72-3.47-.2-2.59,1.51,4.56,8.92,1.77,21.11-6.41,27-5.24,3.78-11.86,4.94-18.2,4.71-6.93-.25-13.93-1.89-20.56-3.83-5.99-1.76-11.94-4.3-16.41-8.79-3.93-3.96-6.54-9.26-6.01-14.94.55-5.96,4.33-11.37,9.24-14.62,5.38-3.55,11.89-4.89,18.26-4.76,7.56.15,15.17,2.13,22.25,4.7,6.29,2.29,12.29,5.61,16.48,10.94,1.19,1.52,3.3-.62,2.12-2.12h.02Z"/>
  <path d="M193.5,317.76c6.01-1.61,12.25-2.09,18.44-1.43,5.14.55,11.19,1.73,15.14,5.34,2.05,1.88,3.15,4.3,3.88,6.94.8,2.86,1.42,5.81,1.87,8.74.87,5.57.77,11.65-2.13,16.65-1.48,2.54-3.68,4.43-6,6.18s-4.63,3.6-7.41,4.42-6.03.68-9.03.68c-3.33-.01-6.66-.02-9.99-.03-3.13-.01-6.44.29-9.54-.19-2.38-.36-4.3-1.64-5.61-3.64-2.75-4.19-3.42-9.9-3.92-14.76-.66-6.43-.19-13.32,3.63-18.78,3.57-5.11,9.71-7.46,15.35-9.47,1.81-.64,1.03-3.54-.8-2.89-5.64,2.01-11.59,4.31-15.64,8.92s-5.75,11.02-5.8,17.17c-.03,3.59.45,7.17,1.06,10.7.47,2.7,1.05,5.38,2.12,7.91.97,2.28,2.33,4.39,4.35,5.88,2.45,1.81,5.41,2.09,8.37,2.12,3.64.03,7.29.02,10.93.04s7.35.19,11-.06c3.25-.23,6.19-1.12,8.93-2.9s5.31-3.67,7.55-5.88c4.45-4.4,6.16-10.68,6.06-16.81-.06-3.54-.67-7.06-1.42-10.51-.66-3.04-1.32-6.18-2.82-8.93-3.25-5.94-10.23-8.26-16.51-9.34-7.6-1.31-15.39-.96-22.85,1.03-1.86.5-1.07,3.39.8,2.89h0Z"/>
  <path d="M260.05,184.61c1.93,0,1.93-3,0-3s-1.93,3,0,3h0Z"/>
  <g>
    <path d="M385.75,353.64c-11.38.9-22.15,5.28-33.2,8.12-5.27,1.35-10.62,2.36-15.96,3.37-3.99.75-7.99,1.51-11.98,2.26-12.02,2.27-24.04,4.53-36.06,6.8"/>
    <path d="M385.75,352.14c-12.55,1.04-24.23,6-36.4,8.86-6.42,1.51-12.92,2.64-19.4,3.86-6.47,1.22-12.93,2.44-19.4,3.66-7.47,1.41-14.95,2.82-22.42,4.22-1.89.36-1.09,3.25.8,2.89,13.06-2.46,26.12-4.92,39.18-7.38,6.33-1.19,12.69-2.31,18.99-3.67s12.24-3.17,18.31-4.99c6.65-1.99,13.39-3.87,20.33-4.45,1.91-.16,1.93-3.16,0-3h0Z"/>
  </g>
  <g>
    <path d="M385.55,353.36c2.09,6.63,3.61,13.45,4.55,20.34.18,1.36.32,2.85-.44,3.99-.6.9-1.63,1.39-2.61,1.83-8.05,3.59-16.39,6.53-24.91,8.79-7.63,2.02-15.4,3.48-23.16,4.95-12.8,2.41-25.6,4.82-38.39,7.24-2.5.47-5.18.93-7.53-.07-2.09-.89-3.59-2.85-4.42-4.97s-1.1-4.41-1.36-6.68c-.54-4.82-1.09-9.63-1.63-14.45"/>
    <path d="M384.11,353.76c1.46,4.68,2.66,9.44,3.56,14.25.43,2.29.96,4.67,1.06,7.01.04.93-.05,1.77-.84,2.36-.84.63-1.94,1-2.9,1.41-8.93,3.89-18.23,6.93-27.71,9.18-9.72,2.31-19.58,4-29.4,5.85-5.02.95-10.04,1.89-15.07,2.84s-9.68,2.05-14.55,2.71c-2.43.33-4.83.13-6.58-1.76-1.64-1.77-2.25-4.21-2.62-6.52-.87-5.55-1.29-11.19-1.92-16.77-.21-1.9-3.22-1.92-3,0,.6,5.34,1.14,10.7,1.82,16.04.56,4.38,1.92,9.37,6.34,11.36,2.15.97,4.49.89,6.78.55,2.59-.38,5.16-.94,7.74-1.43,5.43-1.02,10.85-2.05,16.28-3.07,10.65-2.01,21.35-3.84,31.92-6.19,10.34-2.3,20.43-5.47,30.18-9.63,2.14-.91,4.92-1.72,6-3.98s.29-5.12-.08-7.47c-.95-5.93-2.34-11.79-4.13-17.52-.57-1.84-3.47-1.05-2.89.8h0Z"/>
  </g>
  <path d="M349.53,390.76v-3.47c0-.38-.17-.79-.44-1.06s-.69-.46-1.06-.44c-.81.04-1.5.66-1.5,1.5v3.47c0,.38.17.79.44,1.06s.69.46,1.06.44c.81-.04,1.5-.66,1.5-1.5h0Z"/>
  <g>
    <path d="M392.23,284.95c-11.33-1.37-22.76.8-34.15,1.4-5.43.29-10.87.22-16.31.15-4.06-.05-8.13-.1-12.19-.15-12.23-.15-24.46-.31-36.7-.46"/>
    <path d="M392.23,283.45c-12.87-1.5-25.74,1.28-38.6,1.56-12.88.28-25.81-.19-38.69-.35-7.36-.09-14.71-.19-22.07-.28-1.93-.02-1.93,2.98,0,3,13.04.16,26.09.33,39.13.49,6.38.08,12.77.23,19.15.17s12.92-.63,19.38-1.23c7.21-.67,14.47-1.21,21.69-.37,1.91.22,1.9-2.78,0-3h0Z"/>
  </g>
  <g>
    <path d="M392.09,284.64c.74,6.92.88,13.9.44,20.84-.09,1.37-.25,2.85-1.22,3.82-.76.76-1.87,1.04-2.92,1.28-8.6,1.93-17.35,3.17-26.15,3.69-7.88.47-15.78.37-23.68.27-13.02-.16-26.05-.33-39.07-.49-2.55-.03-5.27-.11-7.37-1.56-1.88-1.29-2.95-3.51-3.36-5.75s-.21-4.54,0-6.81c.42-4.83.84-9.66,1.25-14.49"/>
    <path d="M390.59,284.64c.52,4.99.76,10,.67,15.02-.04,2.27.04,4.68-.34,6.93-.4,2.38-2.57,2.47-4.57,2.9-9.72,2.08-19.6,3.22-29.53,3.52-10.12.31-20.25,0-30.37-.12-5.03-.06-10.06-.13-15.08-.19-2.56-.03-5.11-.06-7.67-.1-2.34-.03-4.72.06-7.05-.17s-4.29-1.13-5.46-3.21-1.24-4.64-1.1-7.01c.31-5.59.95-11.18,1.43-16.76.17-1.92-2.83-1.91-3,0-.46,5.28-.98,10.56-1.37,15.85-.32,4.38.09,9.43,3.92,12.27,1.85,1.37,4.14,1.79,6.4,1.93,2.48.15,4.99.1,7.47.13,5.44.07,10.88.14,16.32.2,10.95.14,21.91.45,32.85.25,10.63-.2,21.21-1.27,31.63-3.4,2.29-.47,5.25-.7,6.88-2.59s1.46-4.91,1.56-7.27c.26-6.06.05-12.14-.58-18.17-.2-1.9-3.2-1.92-3,0h0Z"/>
  </g>
  <path d="M347.68,328.05c8.92-.69,17.88-.99,26.83-.89,1.76.02,3.77-.14,5.42.59s2.23,2.48,2.66,4.07c1.11,4.07,1.57,8.29,1.72,12.49.16,4.78-.08,9.56-.33,14.34-.1,1.93,2.9,1.92,3,0,.47-9.07.91-18.34-1.39-27.22-.46-1.75-1.06-3.56-2.32-4.91-1.32-1.43-3.18-2.01-5.06-2.22-2.21-.25-4.47-.16-6.69-.16-2.49,0-4.97.02-7.46.08-5.47.13-10.93.41-16.39.83-1.91.15-1.93,3.15,0,3h0Z"/>
  <path d="M359.11,342.02c4.49-.76,8.03,2.97,9.88,6.61,2.18,4.31,3.04,9.24,2.83,14.04-.09,1.93,2.91,1.93,3,0,.25-5.65-.92-11.59-3.76-16.53-2.62-4.55-7.3-7.93-12.74-7.01-1.9.32-1.09,3.21.8,2.89h0Z"/>
  <path d="M352.33,331.51c4.45-.23,8.85.18,13.17,1.26v-2.89c-3.58.79-7.21.4-10.58-1.02l-.4,2.95c3.75-.37,7.51-.73,11.26-1.1,1.92-.19,1.94-2.83,0-3l-13.51-1.21v3l11.11-.02v-3l-7.55.34c-1.92.09-1.94,3.06,0,3l19.56-.65v-3c-2.89.14-5.78.28-8.66.42-1.59.08-2.16,2.67-.4,2.95l12.03,1.88c1.87.29,2.69-2.31.8-2.89-9.01-2.78-18.95-.77-26.29,5.07l2.12,2.12,4.25-4.81-2.12-2.12c-1.11,1.38-2.25,2.73-3.46,4.02-.17.19-2.67,2.73-2.23,1.3.34-1.09,2.29-.96,3.15-.83.58.09,1.5.25,1.76.86.06.14,0,.41.04.5.06.12.58-.49.35.22l-2.2.9c.97.62,1.59,1.48,1.9,2.59l1.85-1.85c-.63-.09-1.26-.19-1.89-.28v2.89c5.29-1.99,10.61.93,14.22,4.74,1.88,1.99,3.45,4.24,4.99,6.5s3.75,5.16,3.27,8.16l1.85-1.05c-4.84-.97-8.19-5.65-7.64-10.54l-2.26,1.3c2.59,1.36,4.29,4.28,3.86,7.24h2.89c-1.25-3.88-2.06-7.86-2.36-11.92l-2.8.76c.54,1.05.82,2.14.87,3.33l2.56-1.06c-4.83-5.36-10.87-9.43-17.6-12.01l.9,2.2c1.16-2.66,3.31-4.59,6.14-5.33l-1.85-1.85c-.56,2.74-2.82,4.97-5.67,5.21l.4,2.95c3.93-.56,7.86-1.12,11.8-1.68l-.8-2.89c-1.49.36-3.03-.55-3.46-2.01l-2.89.8c1.41,3.48,5.74,3.21,8.04.79,1.31-1.37,1.99-3.2,3.25-4.59,1.45-1.6,3.33-1.51,4.56.33s1.31,4.32,1.63,6.41c.38,2.42.75,4.85,1.13,7.27.68,4.41,1.43,9-.3,13.28l2.95.4c.34-6.35.68-12.7,1.02-19.05.09-1.71-2.51-2.01-2.95-.4-1.49,5.54-2.16,11.26-1.99,16.99l2.8-.76c-2.26-3.91-3.42-8.27-3.4-12.79h-3c0,3.44.47,6.85,1.42,10.16.55,1.9,3.17,1.06,2.89-.8-.53-3.56-1.61-6.97-3.17-10.22-.56-1.16-2.46-.85-2.74.36-.66,2.88-1.32,5.76-1.98,8.64l1.45-1.1c-1.63,0-2.06-2.73-2.28-3.93-.51-2.74-1-5.48-1.5-8.23l-2.2,1.69c4.33,2.78,7.8,6.84,9.8,11.6l2.2-1.69c-3.28-2.18-5.61-5.48-6.65-9.27-.43-1.58-3.09-1.33-2.95.4l.51,6.33c.15,1.91,2.92,1.95,3,0,.23-5.32-1.14-10.59-3.91-15.13-.53-.86-1.63-.95-2.36-.3-1.82,1.62-3.09,3.71-3.7,6.07h2.89c-.6-1.7,1.68-2.62,2.2-.87.4,1.35,1.98,1.34,2.74.36,1.99-2.58,6.25-2.27,8.22.09v-2.12c-.43.5-1.3.09-1.58-.51-.6-1.28.81-2.89,1.6-3.71l-2.51-.66c.51,1.53,1.03,3.06,1.54,4.59.45,1.35,1.16,2.81,1.33,4.22.03.22-.07.76.07.7-.08.03-.7-.42-.85-.54-.88-.64-1.67-1.32-2.77-1.54s-2.15.68-1.85,1.85c.64,2.49,1.28,4.98,1.93,7.47l2.89-.8c-1.51-4.11-2.33-8.37-2.41-12.75-.03-1.37-1.59-1.88-2.56-1.06-2.5,2.1-5.09,4.06-7.79,5.9-1.23.84-.77,2.72.76,2.8,4.09.21,8.09-.63,11.79-2.38.95-.45,1.01-2.16,0-2.59-1.92-.82-3.9-.99-5.87-.2-.79.31-1.55,1.35-.9,2.2,2.12,2.78,3.98,5.73,5.58,8.83l2.59-1.51c-.54-.71-.86-1.4-.89-2.31-.05-1.53-1.97-1.98-2.8-.76-.9,1.33-2.94.55-4.02-.05-1.59-.88-3.06-1.91-4.74-2.65-3.32-1.46-6.86-2.16-10.46-2.41-7.57-.53-15.16.83-22.7,1.4-8.62.65-17.28.81-25.92.57-6.5-.18-14.34-.42-17.19-7.42-1.48-3.64-1.6-7.75-1.77-11.62-.22-4.85-.21-9.71-.19-14.57,0-1.93-3-1.93-3,0-.01,4.53-.02,9.07.15,13.59.15,3.86.27,7.86,1.32,11.6.96,3.42,2.83,6.49,5.86,8.43s6.8,2.55,10.36,2.8c8.93.63,18.01.39,26.94-.14,8.27-.5,16.6-2.04,24.9-1.7,4.3.18,8.63,1.02,12.4,3.18,1.88,1.08,3.65,2.48,5.89,2.68,1.91.17,3.69-.58,4.77-2.17l-2.8-.76c.05,1.4.44,2.7,1.3,3.82,1.14,1.5,3.5.25,2.59-1.51-1.61-3.11-3.47-6.05-5.58-8.83l-.9,2.2c1.16-.46,2.39-.6,3.56-.1v-2.59c-3.22,1.53-6.72,2.16-10.27,1.97l.76,2.8c2.9-1.98,5.7-4.11,8.4-6.37l-2.56-1.06c.09,4.63.93,9.2,2.52,13.54.65,1.79,3.38,1.1,2.89-.8-.64-2.49-1.28-4.98-1.93-7.47l-1.85,1.85c1.32.26,2.15,1.59,3.42,2.01,1.5.49,3.08-.21,3.68-1.68.64-1.58,0-3.28-.5-4.79-.74-2.22-1.49-4.44-2.23-6.66-.35-1.04-1.69-1.51-2.51-.66-1.89,1.95-3.65,5.13-1.82,7.71,1.34,1.89,4.38,2.68,6.05.76.57-.65.55-1.46,0-2.12-3.36-4.01-9.86-3.47-12.93.52l2.74.36c-.66-2.2-3.02-3.71-5.31-3.01s-3.45,3.31-2.68,5.48c.47,1.33,2.5,1.52,2.89,0,.5-1.89,1.47-3.44,2.93-4.74l-2.36-.3c2.51,4.12,3.7,8.8,3.5,13.62h3l-.51-6.33-2.95.4c1.25,4.56,4.1,8.44,8.03,11.06,1.02.68,2.72-.48,2.2-1.69-2.32-5.52-6.13-10.15-11.18-13.39-1.19-.77-2.42.49-2.2,1.69.59,3.24.91,6.69,1.88,9.84.7,2.28,2.16,4.52,4.8,4.52.63,0,1.3-.46,1.45-1.1.66-2.88,1.32-5.76,1.98-8.64l-2.74.36c1.44,3.01,2.38,6.2,2.86,9.5l2.89-.8c-.88-3.06-1.32-6.17-1.31-9.36,0-1.93-2.99-1.93-3,0-.02,5.03,1.29,9.95,3.81,14.3.73,1.26,2.84.75,2.8-.76-.17-5.48.46-10.9,1.88-16.19l-2.95-.4c-.34,6.35-.68,12.7-1.02,19.05-.1,1.82,2.36,1.85,2.95.4,1.72-4.25,1.21-8.86.54-13.28-.38-2.55-.79-5.1-1.19-7.65-.35-2.28-.53-4.71-1.4-6.87-1.54-3.84-5.85-6-9.32-3.05-1.52,1.29-2.27,3.13-3.46,4.69-.51.67-1.16,1.38-2.03,1.52-.42.07-1.27.05-1.47-.43-.7-1.74-3.45-1.1-2.89.8.9,3.06,4.06,4.86,7.15,4.11,1.93-.47,1.06-3.16-.8-2.89-3.93.56-7.86,1.12-11.8,1.68-1.66.24-1.28,3.09.4,2.95,4.12-.35,7.71-3.3,8.56-7.41.23-1.11-.69-2.15-1.85-1.85-3.5.92-6.48,3.38-7.93,6.71-.41.95-.08,1.83.9,2.2,6.25,2.39,11.8,6.28,16.27,11.24.86.96,2.61.21,2.56-1.06-.07-1.72-.49-3.31-1.28-4.84-.66-1.29-2.91-.72-2.8.76.32,4.33,1.13,8.59,2.47,12.72.41,1.27,2.66,1.57,2.89,0,.62-4.28-1.35-8.59-5.24-10.63-1.08-.57-2.13.16-2.26,1.3-.69,6.12,3.82,12.22,9.84,13.43.73.15,1.71-.2,1.85-1.05.57-3.59-1.02-6.68-2.97-9.59s-3.76-5.56-6.05-7.99c-4.29-4.54-10.88-7.86-17.14-5.51-1.21.46-1.62,2.65,0,2.89.63.09,1.26.19,1.89.28,1.08.16,2.18-.64,1.85-1.85-.52-1.87-1.65-3.34-3.28-4.38-.85-.54-1.92,0-2.2.9-.5,1.57.63,3.05,2.16,3.4,1.73.39,3.19-.92,3.37-2.61.42-3.9-4.35-5.09-7.35-4.49-1.58.32-3.04,1.33-3.48,2.94-.38,1.41.06,3.12,1.36,3.9,1.69,1.01,3.52.04,4.8-1.16,1.66-1.54,3.12-3.37,4.53-5.14,1.18-1.48-.82-3.59-2.12-2.12-1.42,1.6-2.83,3.21-4.25,4.81-1.3,1.48.63,3.31,2.12,2.12,6.5-5.18,15.46-6.74,23.37-4.3l.8-2.89-12.03-1.88-.4,2.95c2.89-.14,5.78-.28,8.66-.42,1.92-.09,1.94-3.06,0-3l-19.56.65v3l7.55-.34c1.92-.09,1.94-3,0-3l-11.11.02c-1.96,0-1.89,2.83,0,3l13.51,1.21v-3c-3.75.37-7.51.73-11.26,1.1-1.74.17-1.96,2.29-.4,2.95,3.86,1.62,8.09,1.92,12.17,1.02,1.45-.32,1.4-2.54,0-2.89-4.57-1.15-9.27-1.62-13.97-1.37-1.92.1-1.93,3.1,0,3h0Z"/>
  <path d="M383.89,336.47c-.73-.46-1.09-1.05-1.27-1.88l-2.89.8c.76,2.5,1.01,5.14.57,7.73-.05.27-.19.62-.18.89l-.08.3.39-.36c0-.14-1.32-.8-1.49-.91-1.12-.72-2.19-1.51-3.21-2.36-.67-.56-1.44-.55-2.12,0-2.23,1.82-2.49,4.81-2.44,7.5.03,1.68.11,3.35-.04,5.03-.04.49-.1.98-.17,1.47-.05.3-.35,1.09-.25,1.39.53-.06.62-.15.26-.28l-.26-.18c-.3-.23-.57-.54-.79-.84-1.75-2.42-1.87-5.99-2.67-8.79-1.02-3.56-2.44-6.99-3.98-10.36-.55-1.22-2.42-.8-2.74.36-.66,2.39-.75,4.78-.35,7.23l1.05-1.85c-1.2.29-2.11-.63-2.26-1.76l-.69,1.69c2.05-.97,3.98-1.08,5.09,1.15.98,1.97.73,4.24.89,6.36s.79,4.15,2.03,6c1.05,1.56,2.6,3.17,2.71,5.14.09,1.58,2.67,2.16,2.95.4.6-3.81.07-7.56-1-11.24-.52-1.79-1.15-3.55-1.79-5.3-.58-1.59-1.21-3.22-2.47-4.41-2.02-1.9-6.24-3.43-8.87-2.01-1.31.71-2.23,2.08-2.09,3.6.14,1.63,1.5,2.74,2.96,3.23,1.38.47,3.34.13,4.24,1.48s.84,3.37.91,4.91c.08,1.72-.07,3.44-.02,5.15.05,1.58,1.06,2.87,2.74,2.73,1.57-.13,2.61-1.41,3.51-2.57,1.14-1.46,2.19-2.98,3.15-4.57,1.77-2.93,3.22-6.08,4.31-9.33.92-2.73,2.07-7.33-1.42-8.83-1.91-.82-3.38.49-3.59,2.38-.19,1.74.45,3.38,1.63,4.64,1.32,1.41,3.44-.71,2.12-2.12-.32-.34-.56-.7-.69-1.16-.06-.22-.1-.43-.11-.65-.01-.37.3-.83-.25-.51-.61.37-.14,0-.05.39.03.13.16.29.21.43.15.44.13.94.09,1.39-.19,2.19-1.23,4.5-2.09,6.5-.97,2.24-2.13,4.4-3.45,6.45-.66,1.03-1.37,2.04-2.12,3.01-.33.43-.69.81-1.03,1.23-.24.29-.53.1-.18.43.4.37.23-.39.24-.65.09-2.56.09-5.2-.31-7.75-.32-2.02-1.19-4.01-3.12-4.95-1.09-.53-2.28-.52-3.43-.8-.89-.22-1.99-1.08-.48-1.53.98-.3,2.23.16,3.15.49,1.16.43,2.12,1.08,2.75,2.17,1.35,2.37,2.12,5.36,2.83,7.97.8,2.91,1.28,5.96.81,8.97l2.95.4c-.15-2.58-1.61-4.46-3.02-6.51-.74-1.09-1.34-2.17-1.58-3.48-.29-1.57-.18-3.19-.32-4.78-.19-2.25-.86-4.67-2.61-6.22-2.3-2.04-5.16-1.46-7.71-.25-.65.31-.77,1.07-.69,1.69.38,2.79,3.32,4.49,5.96,3.85.85-.21,1.17-1.06,1.05-1.85-.3-1.9-.15-3.78.35-5.63l-2.74.36c1.77,3.89,3.34,7.89,4.3,12.07.71,3.1,1.21,6.64,3.88,8.74,1.22.96,3.05,1.5,4.2.12.59-.71.66-1.72.8-2.59.17-1.06.29-2.14.35-3.21.16-2.87-1.03-7.38,1.53-9.47h-2.12c1.44,1.2,2.95,2.32,4.56,3.3,1.44.88,3.42,1.59,4.46-.28.85-1.51.89-3.78.89-5.47,0-1.95-.32-3.9-.89-5.77s-3.32-1.09-2.89.8c.35,1.57,1.3,2.82,2.65,3.67,1.64,1.03,3.15-1.57,1.51-2.59h0Z"/>
  <path d="M228.54,189.26c-2.32,3.06-4.6,6.54-3.76,10.57s4.87,5.83,8.09,7.37c3.68,1.76,7.59,3.03,11.61,3.68,3.62.59,7.79,1,10.94-1.31s4.06-6.38,4.63-10.05h-2.89c1.46,4.14,4.11,7.69,7.69,10.24,4.06,2.9,9.07,3.85,13.94,4.35s10.1.31,14.92-1.06c2.09-.59,4.86-1.35,6.42-2.96s1.57-4.45,1.71-6.48c.18-2.52-.21-5.12-1.79-7.16s-4.01-3.17-6.41-4.07c-1.81-.68-2.59,2.22-.8,2.89,1.65.62,3.4,1.37,4.6,2.71,1.28,1.43,1.5,3.37,1.41,5.22-.07,1.59,0,4.41-1.56,5.27-1.74.96-3.73,1.56-5.65,2.02-3.99.95-8.14,1.06-12.21.69s-8.42-1.08-11.99-3.27-6.08-5.38-7.41-9.17c-.44-1.25-2.64-1.6-2.89,0-.5,3.24-1.13,7.61-4.58,9.05-1.74.73-3.72.64-5.56.45-2.18-.22-4.34-.69-6.44-1.29s-4.2-1.38-6.19-2.33c-1.74-.84-3.64-1.74-5.12-3-3.74-3.18-.37-7.9,1.86-10.83,1.17-1.54-1.44-3.03-2.59-1.51h0Z"/>
  <g>
    <path d="M312.96,394.94c-6.91.79-13.89.99-20.83.59-1.37-.08-2.86-.23-3.83-1.19-.77-.76-1.05-1.86-1.3-2.91-2-8.58-3.3-17.33-3.89-26.12-.53-7.88-.49-15.78-.45-23.68.07-13.02.13-26.05.2-39.07.01-2.55.08-5.27,1.5-7.38,1.28-1.89,3.48-2.98,5.72-3.4s4.54-.24,6.81-.06c4.83.38,9.66.76,14.5,1.15"/>
    <path d="M312.96,393.44c-4.98.56-10,.83-15.01.79-2.27-.02-4.68.07-6.93-.29-2.39-.38-2.5-2.54-2.94-4.55-2.15-9.7-3.37-19.57-3.74-29.5-.38-10.11-.16-20.25-.11-30.37.03-5.03.05-10.06.08-15.08.01-2.56.03-5.11.04-7.67.01-2.34-.1-4.72.12-7.05s1.09-4.31,3.16-5.48,4.63-1.28,7-1.16c5.59.27,11.19.86,16.77,1.3,1.92.15,1.91-2.85,0-3-5.29-.42-10.57-.9-15.86-1.25-4.38-.29-9.43.15-12.24,4-1.36,1.86-1.77,4.16-1.89,6.41-.13,2.48-.06,4.99-.07,7.47-.03,5.44-.06,10.88-.08,16.32-.06,10.95-.29,21.91,0,32.85s1.42,21.2,3.63,31.6c.49,2.29.74,5.25,2.64,6.87s4.92,1.43,7.28,1.51c6.07.21,12.14-.04,18.17-.72,1.9-.21,1.92-3.22,0-3h0Z"/>
  </g>
  <path d="M252.32,149.51c.71,4.97.68,10.09-.14,15.05-.2,1.23-.45,2.46-.74,3.67-.23.94-.38,2.31-1.04,3.08-.74.87-2.3.73-3.33.81-1.23.1-2.47.18-3.7.25-10.48.58-20.97.1-31.43-.59-1.93-.13-1.92,2.87,0,3,9.06.6,18.15,1.04,27.23.77,2.23-.07,4.45-.18,6.67-.34,1.94-.14,4.36,0,6.01-1.19,1.47-1.05,1.95-2.88,2.37-4.54.53-2.1.91-4.23,1.18-6.37.61-4.8.5-9.61-.18-14.39-.27-1.9-3.16-1.09-2.89.8h0Z"/>
  <path d="M264.47,147.75c-.45,2.25-1.25,4.3-2.21,6.38s-1.48,4.05-1.56,6.3.16,4.45,1.12,6.5c.83,1.77,2.03,3.56,3.33,5.02s3.06,2.3,5.1,2.36c2.38.07,4.79-.08,7.17-.13,4.81-.1,9.62-.23,14.43-.48,5.36-.27,10.72-.63,16.01-1.59,1.9-.34,1.09-3.24-.8-2.89-8.44,1.53-17.17,1.64-25.72,1.87-2.12.05-4.24.1-6.36.14-1.06.02-2.12.04-3.18.06-.95.02-2.01.15-2.91-.2-1.55-.62-2.52-2.42-3.38-3.75-1.18-1.83-1.78-3.57-1.81-5.76-.04-2.38.46-4.41,1.46-6.55s1.76-4.21,2.22-6.47c.38-1.89-2.51-2.69-2.89-.8h0Z"/>
  <path d="M254.39,150.82c4.32-.44,8.66-.58,12.99-.42,1.93.07,1.93-2.93,0-3-4.34-.16-8.68-.02-12.99.42-.81.08-1.5.63-1.5,1.5,0,.75.69,1.58,1.5,1.5h0Z"/>
  <path d="M205.01,146.81c-7.71-.92-15.47-1.44-23.24-1.55-1.93-.03-1.93,2.97,0,3,7.77.11,15.52.62,23.24,1.55.81.1,1.49-.76,1.5-1.5,0-.89-.7-1.4-1.5-1.5h0Z"/>
  <path d="M303.86,147.63c4.04-1.28,8.25-1.37,12.45-1.43s8.78-.34,13.16-.78c8.73-.86,17.46-2.08,26.26-1.75,1.93.07,1.93-2.93,0-3-8.96-.33-17.84.94-26.74,1.8-4.38.42-8.75.66-13.15.74s-8.64.23-12.78,1.53c-1.83.58-1.05,3.48.8,2.89h0Z"/>
  <path d="M204.37,155.05c9.46-2.5,19.12-4.12,28.88-4.83l-.76-2.8c-2.34,1.31-5,1.88-7.56,2.58-2.93.8-5.87,1.6-8.8,2.4-2.63.72-5.44,1.25-7.88,2.51-1.1.57-2,1.43-3.24,1.71s-2.34.38-3.42,1.03c-1.5.9-.48,3.07,1.16,2.74,3.47-.69,6.93-1.39,10.4-2.08,1.66-.33,3.33-.65,4.97-1.07s3.22-.98,4.87-1.34c3.28-.71,6.74-.78,10.07-1.17s6.94-.91,10.39-1.47l-1.16-2.74c-6.7,2.96-13.9,4.53-21.01,6.09-6.56,1.44-13.66,2.54-19.08,6.81-1.22.96.11,2.9,1.46,2.51,7.91-2.3,16.17-2.48,24.28-3.58s16.54-3.39,24.99-3.76l-.76-2.8c-1.48,1.11-3.17,1.69-4.92,2.26-1.84.6-3.69,1.18-5.56,1.69-3.89,1.08-7.83,1.69-11.81,2.34-7.82,1.28-15.51,3.28-22.97,5.93-1.48.52-1.39,3.16.4,2.95,15.27-1.79,30.54-3.59,45.74-5.84l-.8-2.89c-5.01,1.92-10.04,4.24-15.28,5.47-4.8,1.12-9.74,1.48-14.22,3.7-1.56.77-.45,3.15,1.16,2.74,8.85-2.24,18.11-.48,27.04-2.22,1.89-.37,1.09-3.26-.8-2.89-8.93,1.73-18.16-.03-27.04,2.22l1.16,2.74c4.34-2.15,9.29-2.35,13.93-3.5,5.08-1.25,9.98-3.5,14.86-5.37,1.83-.7,1.11-3.17-.8-2.89-14.94,2.21-29.95,3.97-44.95,5.73l.4,2.95c7.62-2.7,15.46-4.72,23.44-6,3.99-.64,7.92-1.3,11.81-2.4,3.54-1,7.73-1.88,10.72-4.12,1.08-.81.88-2.87-.76-2.8-8.59.37-16.91,2.64-25.39,3.81s-16.64,1.3-24.68,3.64l1.46,2.51c2.56-2.02,5.68-3.11,8.79-3.95,3.41-.92,6.88-1.63,10.32-2.39,6.95-1.53,13.85-3.21,20.38-6.1,1.67-.74.38-2.99-1.16-2.74-3.43.56-6.86,1.05-10.31,1.45s-6.83.48-10.15,1.19c-1.57.34-3.08.88-4.64,1.28-1.64.42-3.3.75-4.97,1.08-3.55.71-7.09,1.42-10.64,2.13l1.16,2.74c.98-.59,2.18-.53,3.25-.86,1.2-.37,2.13-1.17,3.21-1.77,2.49-1.36,5.59-1.83,8.31-2.57,2.86-.78,5.71-1.56,8.57-2.34,2.59-.71,5.2-1.37,7.56-2.69,1.25-.7.75-2.91-.76-2.8-10.02.73-19.96,2.38-29.68,4.94-1.87.49-1.07,3.39.8,2.89h0Z"/>
  <path d="M265.86,153.17c3.89-.5,7.74-1.18,11.55-2.09l-1.16-2.74c-2.8,1.2-5.29,2.93-7.79,4.66-2.63,1.82-5.25,3.63-7.88,5.45-1.42.98-.54,3.05,1.16,2.74,14.26-2.61,28.13-7.03,41.31-13.08l-1.51-2.59c-5.13,3.85-10.28,7.72-15.94,10.77s-12.49,5.05-18.82,7.24l.8,2.89c6.35-2.46,13.06-3.75,19.7-5.18,7.03-1.51,14.06-3.02,21.09-4.53l-.8-2.89c-13.05,4.13-26.11,8.25-39.16,12.38-1.87.59-1.08,3.21.8,2.89,13.45-2.28,26.92-5,40.49-6.45l-.4-2.95c-10.84,3.97-21.98,7.05-33.33,9.21-1.65.31-1.29,3.06.4,2.95,10.66-.72,21.24-2.27,31.8-3.82,1.9-.28,1.09-3.17-.8-2.89-10.3,1.51-20.61,3-31,3.71l.4,2.95c11.34-2.16,22.49-5.24,33.33-9.21,1.46-.54,1.41-3.14-.4-2.95-13.84,1.48-27.57,4.23-41.29,6.55l.8,2.89c13.05-4.13,26.11-8.25,39.16-12.38,1.85-.58,1.09-3.3-.8-2.89-7.03,1.51-14.06,3.02-21.09,4.53-6.64,1.42-13.35,2.72-19.7,5.18-1.77.68-1.05,3.53.8,2.89,6.44-2.23,13.1-4.15,19.15-7.34s11.09-7.03,16.34-10.98c1.54-1.16.26-3.41-1.51-2.59-12.94,5.94-26.6,10.21-40.59,12.77l1.16,2.74c2.63-1.82,5.25-3.63,7.88-5.45s4.99-3.45,7.79-4.66c1.61-.69.43-3.12-1.16-2.74-3.55.85-7.13,1.52-10.75,1.98-1.89.24-1.91,3.24,0,3h0Z"/>
  <path d="M263.16,158.29c5.27-1.36,10.55-2.69,15.82-4.07s10.3-3.19,15.36-5.06c1.79-.66,1.02-3.57-.8-2.89-5.06,1.88-10.13,3.69-15.36,5.06s-10.54,2.72-15.82,4.07c-1.87.48-1.08,3.37.8,2.89h0Z"/>
  <path d="M292.88,150.18c-9.93,4.31-20.77,6.01-30.66,10.46-1.76.79-.23,3.38,1.51,2.59,9.88-4.44,20.73-6.15,30.66-10.46,1.77-.77.24-3.35-1.51-2.59h0Z"/>
</svg>